<mxfile host="app.diagrams.net" agent="Mozilla/5.0 (Windows NT 10.0; Win64; x64) AppleWebKit/537.36 (KHTML, like Gecko) Chrome/139.0.0.0 Safari/537.36" version="28.1.2">
  <diagram id="UhpUw7KzACR7qqM1qQUJ" name="Pagina-1">
    <mxGraphModel dx="8264" dy="2972" grid="0" gridSize="10" guides="1" tooltips="1" connect="1" arrows="1" fold="1" page="1" pageScale="1" pageWidth="827" pageHeight="1169" background="none" math="0" shadow="0">
      <root>
        <mxCell id="0" />
        <mxCell id="1" parent="0" />
        <mxCell id="HNBqewanFJI22BrjTl65-1" value="&lt;font style=&quot;font-size: 14px;&quot;&gt;BusinessLogic&lt;/font&gt;" style="shape=folder;fontStyle=1;tabWidth=110;tabHeight=30;tabPosition=left;html=1;boundedLbl=1;labelInHeader=1;container=1;collapsible=0;recursiveResize=0;whiteSpace=wrap;" vertex="1" parent="1">
          <mxGeometry x="560" y="914" width="3854" height="4693" as="geometry" />
        </mxCell>
        <mxCell id="edge56" value="" style="html=1;rounded=1;edgeStyle=orthogonalEdgeStyle;dashed=1;startArrow=none;endArrow=openThin;endSize=12;strokeColor=#595959;exitX=1.000;exitY=0.961;exitDx=0;exitDy=0;entryX=0.000;entryY=0.500;entryDx=0;entryDy=0;" parent="HNBqewanFJI22BrjTl65-1" edge="1">
          <mxGeometry width="50" height="50" relative="1" as="geometry">
            <Array as="points" />
            <mxPoint x="1058" y="1155.0410000000002" as="sourcePoint" />
            <mxPoint x="1165" y="1155.5" as="targetPoint" />
          </mxGeometry>
        </mxCell>
        <mxCell id="label338" value="«create»" style="edgeLabel;resizable=0;html=1;align=left;verticalAlign=top;strokeColor=default;" parent="edge56" vertex="1" connectable="0">
          <mxGeometry x="1623" y="2363" as="geometry" />
        </mxCell>
        <mxCell id="node36" value="&lt;p style=&quot;margin:0px;margin-top:4px;text-align:center;&quot;&gt;&lt;b&gt;AssignedConvoyInfo&lt;/b&gt;&lt;/p&gt;&lt;hr size=&quot;1&quot;/&gt;&lt;p style=&quot;margin:0 0 0 4px;line-height:1.6;&quot;&gt;+ idStaff: int&lt;br/&gt;+ departureStation: String&lt;br/&gt;+ idFirstStation: int&lt;br/&gt;+ timeDeparture: Timestamp&lt;br/&gt;+ arrivalTime: String&lt;br/&gt;+ convoyId: int&lt;br/&gt;+ idLine: int&lt;br/&gt;+ arrivalStation: String&lt;/p&gt;" style="verticalAlign=top;align=left;overflow=fill;fontSize=14;fontFamily=Helvetica;html=1;rounded=0;shadow=0;comic=0;labelBackgroundColor=none;strokeWidth=1;" parent="1" vertex="1">
          <mxGeometry x="1535" y="4763" width="212" height="231" as="geometry" />
        </mxCell>
        <mxCell id="node23" value="&lt;p style=&quot;margin:0px;margin-top:4px;text-align:center;&quot;&gt;&lt;b&gt;CarriageSelectionPopupController&lt;/b&gt;&lt;/p&gt;&lt;hr size=&quot;1&quot;/&gt;&lt;p style=&quot;margin:0 0 0 4px;line-height:1.6;&quot;&gt;- selectedCarriages: ObservableList&amp;lt;Carriage&amp;gt;&lt;br/&gt;- capacityColumn: TableColumn&amp;lt;Carriage, Integer&amp;gt;&lt;br/&gt;- carriageTable: TableView&amp;lt;Carriage&amp;gt;&lt;br/&gt;- modelColumn: TableColumn&amp;lt;Carriage, String&amp;gt;&lt;br/&gt;- convoy: Convoy&lt;br/&gt;- idColumn: TableColumn&amp;lt;Carriage, Integer&amp;gt;&lt;br/&gt;- typeColumn: TableColumn&amp;lt;Carriage, String&amp;gt;&lt;br/&gt;- service: CarriageSelectionPopupService&lt;br/&gt;- confirmButton: Button&lt;/p&gt;&lt;hr size=&quot;1&quot;/&gt;&lt;p style=&quot;margin:0 0 0 4px;line-height:1.6;&quot;&gt;- confirmSelection(): void&lt;br/&gt;+ setConvoy(Convoy): void&lt;br/&gt;- setAvailableCarriages(): void&lt;br/&gt;+ initialize(URL, ResourceBundle): void&lt;br/&gt;+ getSelectedCarriages(): List&amp;lt;Carriage&amp;gt;&lt;/p&gt;" style="verticalAlign=top;align=left;overflow=fill;fontSize=14;fontFamily=Helvetica;html=1;rounded=0;shadow=0;comic=0;labelBackgroundColor=none;strokeWidth=1;" parent="1" vertex="1">
          <mxGeometry x="2273" y="3417" width="356" height="377" as="geometry" />
        </mxCell>
        <mxCell id="node1" value="&lt;p style=&quot;margin:0px;margin-top:4px;text-align:center;&quot;&gt;&lt;b&gt;CarriageSelectionPopupService&lt;/b&gt;&lt;/p&gt;&lt;hr size=&quot;1&quot;/&gt;&lt;p style=&quot;margin:0 0 0 4px;line-height:1.6;&quot;&gt;- facade: RailSuiteFacade&lt;br/&gt;~ carriages: List&amp;lt;Carriage&amp;gt;&lt;/p&gt;&lt;hr size=&quot;1&quot;/&gt;&lt;p style=&quot;margin:0 0 0 4px;line-height:1.6;&quot;&gt;+ getCarriagesFromStation(): List&amp;lt;Carriage&amp;gt;&lt;/p&gt;" style="verticalAlign=top;align=left;overflow=fill;fontSize=14;fontFamily=Helvetica;html=1;rounded=0;shadow=0;comic=0;labelBackgroundColor=none;strokeWidth=1;" parent="1" vertex="1">
          <mxGeometry x="2309" y="3207" width="313" height="122" as="geometry" />
        </mxCell>
        <mxCell id="node28" value="&lt;p style=&quot;margin:0px;margin-top:4px;text-align:center;&quot;&gt;&lt;b&gt;ChangeConvoyPopupController&lt;/b&gt;&lt;/p&gt;&lt;hr size=&quot;1&quot;/&gt;&lt;p style=&quot;margin:0 0 0 4px;line-height:1.6;&quot;&gt;- carriageCountColumn: TableColumn&amp;lt;ConvoyTableDTO, Number&amp;gt;&lt;br/&gt;- modelTypeColumn: TableColumn&amp;lt;ConvoyTableDTO, String&amp;gt;&lt;br/&gt;- cancelButton: Button&lt;br/&gt;- filteredData: FilteredList&amp;lt;ConvoyTableDTO&amp;gt;&lt;br/&gt;- idColumn: TableColumn&amp;lt;ConvoyTableDTO, Number&amp;gt;&lt;br/&gt;- confirmButton: Button&lt;br/&gt;- confirmCallback: Callback&amp;lt;ConvoyTableDTO, Void&amp;gt;&lt;br/&gt;- filterField: TextField&lt;br/&gt;- modelColumn: TableColumn&amp;lt;ConvoyTableDTO, String&amp;gt;&lt;br/&gt;- capacityColumn: TableColumn&amp;lt;ConvoyTableDTO, Number&amp;gt;&lt;br/&gt;- convoyTable: TableView&amp;lt;ConvoyTableDTO&amp;gt;&lt;/p&gt;&lt;hr size=&quot;1&quot;/&gt;&lt;p style=&quot;margin:0 0 0 4px;line-height:1.6;&quot;&gt;+ setConvoys(ObservableList&amp;lt;ConvoyTableDTO&amp;gt;): void&lt;br/&gt;+ setConfirmCallback(Callback&amp;lt;ConvoyTableDTO, Void&amp;gt;): void&lt;br/&gt;- initialize(): void&lt;/p&gt;" style="verticalAlign=top;align=left;overflow=fill;fontSize=14;fontFamily=Helvetica;html=1;rounded=0;shadow=0;comic=0;labelBackgroundColor=none;strokeWidth=1;" parent="1" vertex="1">
          <mxGeometry x="574" y="1407" width="453" height="377" as="geometry" />
        </mxCell>
        <mxCell id="node16" value="&lt;p style=&quot;margin:0px;margin-top:4px;text-align:center;&quot;&gt;&lt;b&gt;ConvoyDetailsController&lt;/b&gt;&lt;/p&gt;&lt;hr size=&quot;1&quot;&gt;&lt;p style=&quot;margin:0 0 0 4px;line-height:1.6;&quot;&gt;- arrivalTimeLabel: Label&lt;br&gt;- departureStationLabel: Label&lt;br&gt;- departureTimeLabel: Label&lt;br&gt;- convoyIdLabel: Label&lt;br&gt;- lineNameLabel: Label&lt;br&gt;- carriageYearColumn: TableColumn&amp;lt;Carriage, Integer&amp;gt;&lt;br&gt;- stationTable: TableView&amp;lt;StationRow&amp;gt;&lt;br&gt;- staticConvoyInfo: AssignedConvoyInfo&lt;br&gt;- notificationService: NotificationService&lt;br&gt;- carriageIdColumn: TableColumn&amp;lt;Carriage, Integer&amp;gt;&lt;br&gt;- toggleStationTableButton: Button&lt;br&gt;- arrivalTimeColumn: TableColumn&amp;lt;StationRow, String&amp;gt;&lt;br&gt;- exitMenuItem: MenuItem&lt;br&gt;- operatorNameLabel: Label&lt;br&gt;- carriageModelColumn: TableColumn&amp;lt;Carriage, String&amp;gt;&lt;br&gt;- carriageTypeColumn: TableColumn&amp;lt;Carriage, String&amp;gt;&lt;br&gt;- convoyDetailsService: ConvoyDetailsService&lt;br&gt;- arrivalStationLabel: Label&lt;br&gt;- carriageTable: TableView&amp;lt;Carriage&amp;gt;&lt;br&gt;- logoutMenuItem: MenuItem&lt;br&gt;- toggleCarriageTableButton: Button&lt;br&gt;- stationNameColumn: TableColumn&amp;lt;StationRow, String&amp;gt;&lt;br&gt;- notifiedTypesByCarriagePerStaff: Map&amp;lt;Integer, Set&amp;lt;String&amp;gt;&amp;gt;&lt;br&gt;- notifiedTypesByCarriage: Map&amp;lt;Integer, Set&amp;lt;String&amp;gt;&amp;gt;&lt;br&gt;- staffNameLabel: Label&lt;br&gt;- convoyInfo: AssignedConvoyInfo&lt;br&gt;- notifyColumn: TableColumn&amp;lt;Carriage, Void&amp;gt;&lt;br&gt;- carriageCapacityColumn: TableColumn&amp;lt;Carriage, Integer&amp;gt;&lt;br&gt;- departureTimeColumn: TableColumn&amp;lt;StationRow, String&amp;gt;&lt;/p&gt;&lt;hr size=&quot;1&quot;&gt;&lt;p style=&quot;margin:0 0 0 4px;line-height:1.6;&quot;&gt;- handleLogout(): void&lt;br&gt;+ setStaticConvoyInfo(AssignedConvoyInfo): void&lt;br&gt;+ setConvoyInfo(AssignedConvoyInfo): void&lt;br&gt;- handleExit(): void&lt;br&gt;+ initialize(): void&lt;br&gt;- handleTechnicalIssue(Carriage): void&lt;br&gt;- handleCleaning(Carriage): void&lt;br&gt;- populateDetails(): void&lt;/p&gt;" style="verticalAlign=top;align=left;overflow=fill;fontSize=14;fontFamily=Helvetica;html=1;rounded=0;shadow=0;comic=0;labelBackgroundColor=none;strokeWidth=1;" parent="1" vertex="1">
          <mxGeometry x="1025" y="4646" width="429" height="894" as="geometry" />
        </mxCell>
        <mxCell id="node35" value="&lt;p style=&quot;margin:0px;margin-top:4px;text-align:center;&quot;&gt;&lt;b&gt;ConvoyDetailsDTO&lt;/b&gt;&lt;/p&gt;&lt;hr size=&quot;1&quot;/&gt;&lt;p style=&quot;margin:0 0 0 4px;line-height:1.6;&quot;&gt;+ staffName: String&lt;br/&gt;+ departureStation: String&lt;br/&gt;+ stationRows: List&amp;lt;StationRow&amp;gt;&lt;br/&gt;+ arrivalTime: String&lt;br/&gt;+ carriages: List&amp;lt;Carriage&amp;gt;&lt;br/&gt;+ lineName: String&lt;br/&gt;+ departureTime: String&lt;br/&gt;+ convoyId: String&lt;br/&gt;+ idStaff: int&lt;br/&gt;+ arrivalStation: String&lt;/p&gt;" style="verticalAlign=top;align=left;overflow=fill;fontSize=14;fontFamily=Helvetica;html=1;rounded=0;shadow=0;comic=0;labelBackgroundColor=none;strokeWidth=1;" parent="1" vertex="1">
          <mxGeometry x="780" y="2750" width="241" height="279" as="geometry" />
        </mxCell>
        <mxCell id="node32" value="&lt;p style=&quot;margin:0px;margin-top:4px;text-align:center;&quot;&gt;&lt;b&gt;ConvoyDetailsRaw&lt;/b&gt;&lt;/p&gt;&lt;hr size=&quot;1&quot;/&gt;&lt;p style=&quot;margin:0 0 0 4px;line-height:1.6;&quot;&gt;+ carriages: List&amp;lt;Carriage&amp;gt;&lt;br/&gt;+ departureStation: String&lt;br/&gt;+ departureTime: String&lt;br/&gt;+ stationRows: List&amp;lt;StationRow&amp;gt;&lt;br/&gt;+ staffName: String&lt;br/&gt;+ arrivalStation: String&lt;br/&gt;+ idStaff: int&lt;br/&gt;+ arrivalTime: String&lt;br/&gt;+ convoyId: int&lt;br/&gt;+ lineName: String&lt;/p&gt;" style="verticalAlign=top;align=left;overflow=fill;fontSize=14;fontFamily=Helvetica;html=1;rounded=0;shadow=0;comic=0;labelBackgroundColor=none;strokeWidth=1;" parent="1" vertex="1">
          <mxGeometry x="1383" y="2842" width="241" height="279" as="geometry" />
        </mxCell>
        <mxCell id="node2" value="&lt;p style=&quot;margin:0px;margin-top:4px;text-align:center;&quot;&gt;&lt;b&gt;ConvoyDetailsService&lt;/b&gt;&lt;/p&gt;&lt;hr size=&quot;1&quot;/&gt;&lt;p style=&quot;margin:0 0 0 4px;line-height:1.6;&quot;&gt;- facade: RailSuiteFacade&lt;br/&gt;- logger: Logger&lt;/p&gt;&lt;hr size=&quot;1&quot;/&gt;&lt;p style=&quot;margin:0 0 0 4px;line-height:1.6;&quot;&gt;+ getConvoyDetailsDTO(AssignedConvoyInfo): ConvoyDetailsDTO&lt;br/&gt;+ sendNotificationTechnicalIssue(Carriage, AssignedConvoyInfo): void&lt;br/&gt;- sendNotification(Carriage, String, AssignedConvoyInfo): void&lt;br/&gt;+ sendNotificationCleaning(Carriage, AssignedConvoyInfo): void&lt;/p&gt;" style="verticalAlign=top;align=left;overflow=fill;fontSize=14;fontFamily=Helvetica;html=1;rounded=0;shadow=0;comic=0;labelBackgroundColor=none;strokeWidth=1;" parent="1" vertex="1">
          <mxGeometry x="662" y="3151" width="478" height="185" as="geometry" />
        </mxCell>
        <mxCell id="node22" value="&lt;p style=&quot;margin:0px;margin-top:4px;text-align:center;&quot;&gt;&lt;b&gt;ConvoyEditPopupController&lt;/b&gt;&lt;/p&gt;&lt;hr size=&quot;1&quot;/&gt;&lt;p style=&quot;margin:0 0 0 4px;line-height:1.6;&quot;&gt;- idColumn: TableColumn&amp;lt;Carriage, Integer&amp;gt;&lt;br/&gt;- removeCarriageButton: Button&lt;br/&gt;- confirmButton: Button&lt;br/&gt;- typeColumn: TableColumn&amp;lt;Carriage, String&amp;gt;&lt;br/&gt;- service: ConvoyEditPopupService&lt;br/&gt;- addCarriageButton: Button&lt;br/&gt;- logger: Logger&lt;br/&gt;- modelColumn: TableColumn&amp;lt;Carriage, String&amp;gt;&lt;br/&gt;- capacityColumn: TableColumn&amp;lt;Carriage, Integer&amp;gt;&lt;br/&gt;- convoy: Convoy&lt;br/&gt;- carriageTable: TableView&amp;lt;Carriage&amp;gt;&lt;/p&gt;&lt;hr size=&quot;1&quot;/&gt;&lt;p style=&quot;margin:0 0 0 4px;line-height:1.6;&quot;&gt;+ setConvoy(Convoy): void&lt;br/&gt;- removeCarriageEvent(): void&lt;br/&gt;+ initialize(URL, ResourceBundle): void&lt;br/&gt;- addCarriageEvent(): void&lt;br/&gt;- confirmEvent(): void&lt;/p&gt;" style="verticalAlign=top;align=left;overflow=fill;fontSize=14;fontFamily=Helvetica;html=1;rounded=0;shadow=0;comic=0;labelBackgroundColor=none;strokeWidth=1;" parent="1" vertex="1">
          <mxGeometry x="2669" y="3185" width="356" height="425" as="geometry" />
        </mxCell>
        <mxCell id="node11" value="&lt;p style=&quot;margin:0px;margin-top:4px;text-align:center;&quot;&gt;&lt;b&gt;ConvoyEditPopupService&lt;/b&gt;&lt;/p&gt;&lt;hr size=&quot;1&quot;/&gt;&lt;p style=&quot;margin:0 0 0 4px;line-height:1.6;&quot;&gt;- facade: RailSuiteFacade&lt;/p&gt;&lt;hr size=&quot;1&quot;/&gt;&lt;p style=&quot;margin:0 0 0 4px;line-height:1.6;&quot;&gt;+ removeCarriageFromConvoy(Convoy, Carriage): void&lt;br/&gt;+ addCarriagesToConvoy(Convoy, List&amp;lt;Carriage&amp;gt;): void&lt;/p&gt;" style="verticalAlign=top;align=left;overflow=fill;fontSize=14;fontFamily=Helvetica;html=1;rounded=0;shadow=0;comic=0;labelBackgroundColor=none;strokeWidth=1;" parent="1" vertex="1">
          <mxGeometry x="2635" y="2982" width="390" height="122" as="geometry" />
        </mxCell>
        <mxCell id="node10" value="&lt;p style=&quot;margin:0px;margin-top:4px;text-align:center;&quot;&gt;&lt;b&gt;ConvoyService&lt;/b&gt;&lt;/p&gt;&lt;hr size=&quot;1&quot;/&gt;&lt;p style=&quot;margin:0 0 0 4px;line-height:1.6;&quot;&gt;- facade: RailSuiteFacade&lt;br/&gt;- logger: Logger&lt;/p&gt;&lt;hr size=&quot;1&quot;/&gt;&lt;p style=&quot;margin:0 0 0 4px;line-height:1.6;&quot;&gt;+ getAllConvoys(): List&amp;lt;Convoy&amp;gt;&lt;br/&gt;+ getAvailableDepotCarriageTypes(int): List&amp;lt;String&amp;gt;&lt;br/&gt;+ getCarriagesWithDepotStatusByConvoy(int): List&amp;lt;CarriageDepotDTO&amp;gt;&lt;br/&gt;+ createConvoy(List&amp;lt;Carriage&amp;gt;): void&lt;br/&gt;+ getAvailableDepotCarriages(int, String): List&amp;lt;Carriage&amp;gt;&lt;br/&gt;+ updateDepotCarriageAvailability(int): void&lt;br/&gt;+ deleteConvoy(int, int): void&lt;br/&gt;+ getConvoyTableByStation(int): List&amp;lt;ConvoyTableDTO&amp;gt;&lt;/p&gt;" style="verticalAlign=top;align=left;overflow=fill;fontSize=14;fontFamily=Helvetica;html=1;rounded=0;shadow=0;comic=0;labelBackgroundColor=none;strokeWidth=1;" parent="1" vertex="1">
          <mxGeometry x="1129" y="2093" width="489" height="281" as="geometry" />
        </mxCell>
        <mxCell id="node29" value="&lt;p style=&quot;margin:0px;margin-top:4px;text-align:center;&quot;&gt;&lt;b&gt;CreateConvoyController&lt;/b&gt;&lt;/p&gt;&lt;hr size=&quot;1&quot;/&gt;&lt;p style=&quot;margin:0 0 0 4px;line-height:1.6;&quot;&gt;- yearCarriageColumn: TableColumn&amp;lt;Carriage, Number&amp;gt;&lt;br/&gt;- backButton: Button&lt;br/&gt;- supervisorNameLabel: Label&lt;br/&gt;- depotCarriageTypeComboBox: ComboBox&amp;lt;String&amp;gt;&lt;br/&gt;- idCarriageColumn: TableColumn&amp;lt;Carriage, Number&amp;gt;&lt;br/&gt;- depotCarriageModelComboBox: ComboBox&amp;lt;String&amp;gt;&lt;br/&gt;- logoutMenuItem: MenuItem&lt;br/&gt;- menuButton: MenuButton&lt;br/&gt;- capacityCarriageColumn: TableColumn&amp;lt;Carriage, Number&amp;gt;&lt;br/&gt;- depotCarriageModelLabel: Label&lt;br/&gt;- cancelCreateConvoyButton: Button&lt;br/&gt;- selectedStation: Station&lt;br/&gt;- exitMenuItem: MenuItem&lt;br/&gt;- createConvoyService: CreateConvoyService&lt;br/&gt;- selectCarriageColumn: TableColumn&amp;lt;Carriage, Boolean&amp;gt;&lt;br/&gt;- confirmCreateConvoyButton: Button&lt;br/&gt;- selectedStationLabel: Label&lt;br/&gt;- selectedDepotCarriages: ObservableList&amp;lt;Carriage&amp;gt;&lt;br/&gt;- depotCarriageTableView: TableView&amp;lt;Carriage&amp;gt;&lt;br/&gt;- modelCarriageColumn: TableColumn&amp;lt;Carriage, String&amp;gt;&lt;/p&gt;&lt;hr size=&quot;1&quot;/&gt;&lt;p style=&quot;margin:0 0 0 4px;line-height:1.6;&quot;&gt;- onDepotModelSelected(): void&lt;br/&gt;- showError(String): void&lt;br/&gt;- onDepotTypeSelected(): void&lt;br/&gt;- handleConfirmCreateConvoy(): void&lt;br/&gt;+ setSession(Staff, Station): void&lt;br/&gt;+ initialize(): void&lt;br/&gt;- goBackToManageConvoy(): void&lt;br/&gt;- reloadDepotTypes(): void&lt;/p&gt;" style="verticalAlign=top;align=left;overflow=fill;fontSize=14;fontFamily=Helvetica;html=1;rounded=0;shadow=0;comic=0;labelBackgroundColor=none;strokeWidth=1;" parent="1" vertex="1">
          <mxGeometry x="608" y="1968" width="413" height="713" as="geometry" />
        </mxCell>
        <mxCell id="node12" value="&lt;p style=&quot;margin:0px;margin-top:4px;text-align:center;&quot;&gt;&lt;b&gt;CreateConvoyService&lt;/b&gt;&lt;/p&gt;&lt;hr size=&quot;1&quot;/&gt;&lt;p style=&quot;margin:0 0 0 4px;line-height:1.6;&quot;&gt;- facade: RailSuiteFacade&lt;/p&gt;&lt;hr size=&quot;1&quot;/&gt;&lt;p style=&quot;margin:0 0 0 4px;line-height:1.6;&quot;&gt;+ getAvailableDepotCarriageTypes(int): List&amp;lt;String&amp;gt;&lt;br/&gt;+ createConvoy(List&amp;lt;Carriage&amp;gt;): void&lt;br/&gt;+ getAvailableDepotCarriageModels(int, String): List&amp;lt;String&amp;gt;&lt;br/&gt;+ getAvailableDepotCarriages(int, String): List&amp;lt;Carriage&amp;gt;&lt;/p&gt;" style="verticalAlign=top;align=left;overflow=fill;fontSize=14;fontFamily=Helvetica;html=1;rounded=0;shadow=0;comic=0;labelBackgroundColor=none;strokeWidth=1;" parent="1" vertex="1">
          <mxGeometry x="1200" y="2488" width="416" height="161" as="geometry" />
        </mxCell>
        <mxCell id="node19" value="&lt;p style=&quot;margin:0px;margin-top:4px;text-align:center;&quot;&gt;&lt;b&gt;CreateRunController&lt;/b&gt;&lt;/p&gt;&lt;hr size=&quot;1&quot;/&gt;&lt;p style=&quot;margin:0 0 0 4px;line-height:1.6;&quot;&gt;- dateRecap: Label&lt;br/&gt;- carriageCapacityColumn: TableColumn&amp;lt;Carriage, Number&amp;gt;&lt;br/&gt;- typeOfConvoyComboHandler: EventHandler&amp;lt;ActionEvent&amp;gt;&lt;br/&gt;- logoutMenuItem: MenuItem&lt;br/&gt;- convoyIdRecap: Label&lt;br/&gt;- startStationComboBox: ComboBox&amp;lt;String&amp;gt;&lt;br/&gt;- supervisorNameLabel: Label&lt;br/&gt;- backButton: Button&lt;br/&gt;- startStationComboHandler: EventHandler&amp;lt;ActionEvent&amp;gt;&lt;br/&gt;- convoyComboHandler: EventHandler&amp;lt;ActionEvent&amp;gt;&lt;br/&gt;- arriveColumn: TableColumn&amp;lt;StationArrAndDep, String&amp;gt;&lt;br/&gt;- exitMenuItem: MenuItem&lt;br/&gt;- typeOfConvoyComboBox: ComboBox&amp;lt;String&amp;gt;&lt;br/&gt;- routeTableView: TableView&amp;lt;StationArrAndDep&amp;gt;&lt;br/&gt;- carriageIdColumn: TableColumn&amp;lt;Carriage, Number&amp;gt;&lt;br/&gt;- createRunButton: Button&lt;br/&gt;- staffNameSurnameRecap: Label&lt;br/&gt;- timeRecap: Label&lt;br/&gt;- recapButton: Button&lt;br/&gt;- datePicker: DatePicker&lt;br/&gt;- departureTimePicker: ComboBox&amp;lt;String&amp;gt;&lt;br/&gt;- menuButton: MenuButton&lt;br/&gt;- convoyComboBox: ComboBox&amp;lt;Convoy&amp;gt;&lt;br/&gt;- logger: Logger&lt;br/&gt;- operatorComboBox: ComboBox&amp;lt;StaffDTO&amp;gt;&lt;br/&gt;- lineComboBox: ComboBox&amp;lt;Line&amp;gt;&lt;br/&gt;- createRunService: CreateRunService&lt;br/&gt;- stationColumn: TableColumn&amp;lt;StationArrAndDep, String&amp;gt;&lt;br/&gt;- departureColumn: TableColumn&amp;lt;StationArrAndDep, String&amp;gt;&lt;br/&gt;- carriagesTableView: TableView&amp;lt;Carriage&amp;gt;&lt;br/&gt;- carriageModelColumn: TableColumn&amp;lt;Carriage, String&amp;gt;&lt;/p&gt;&lt;hr size=&quot;1&quot;/&gt;&lt;p style=&quot;margin:0 0 0 4px;line-height:1.6;&quot;&gt;+ header(Label, MenuItem, MenuItem): void&lt;br/&gt;- showErrorPopup(String): void&lt;br/&gt;- handleCreateRun(ActionEvent): void&lt;br/&gt;- onLineSelected(): void&lt;br/&gt;- updateRecapLabels(): void&lt;br/&gt;- recapButton(ActionEvent): void&lt;br/&gt;+ initialize(): void&lt;br/&gt;- calculateTravelTimeAndCreateRun(Line, LocalDate, String, Convoy, StaffDTO, ProgressBar, Stage): void&lt;br/&gt;- updateConvoyAvailability(): void&lt;br/&gt;- calculateTravelTimeAsync(Line): void&lt;br/&gt;- checkRecap(): boolean&lt;br/&gt;- updatePoolsAvailability(): void&lt;/p&gt;" style="verticalAlign=top;align=left;overflow=fill;fontSize=14;fontFamily=Helvetica;html=1;rounded=0;shadow=0;comic=0;labelBackgroundColor=none;strokeWidth=1;" parent="1" vertex="1">
          <mxGeometry x="2694" y="3830" width="446" height="1073" as="geometry" />
        </mxCell>
        <mxCell id="node5" value="&lt;p style=&quot;margin:0px;margin-top:4px;text-align:center;&quot;&gt;&lt;b&gt;CreateRunService&lt;/b&gt;&lt;/p&gt;&lt;hr size=&quot;1&quot;/&gt;&lt;p style=&quot;margin:0 0 0 4px;line-height:1.6;&quot;&gt;- convoysPoolAvailableFilteredByType: List&amp;lt;Convoy&amp;gt;&lt;br/&gt;- convoysPoolAvailable: List&amp;lt;Convoy&amp;gt;&lt;br/&gt;- facade: RailSuiteFacade&lt;br/&gt;- travelTime: Duration&lt;/p&gt;&lt;hr size=&quot;1&quot;/&gt;&lt;p style=&quot;margin:0 0 0 4px;line-height:1.6;&quot;&gt;+ getTimeTableForRun(int, int, String): List&amp;lt;StationArrAndDep&amp;gt;&lt;br/&gt;+ waitForTravelTime(Line): Duration&lt;br/&gt;+ getConvoyTypes(List&amp;lt;Convoy&amp;gt;): List&amp;lt;String&amp;gt;&lt;br/&gt;+ getTravelTime(): Duration&lt;br/&gt;+ getConvoysPoolAvailableFilteredByType(): List&amp;lt;Convoy&amp;gt;&lt;br/&gt;+ setConvoyPools(int, String, LocalDate, int): void&lt;br/&gt;+ getStaffPools(int, LocalDate, String): List&amp;lt;StaffDTO&amp;gt;&lt;br/&gt;+ getConvoysPoolAvailable(): List&amp;lt;Convoy&amp;gt;&lt;br/&gt;+ getAllLines(): List&amp;lt;Line&amp;gt;&lt;br/&gt;+ setConvoysPoolAvailable(List&amp;lt;Convoy&amp;gt;): void&lt;br/&gt;+ createRun(Line, LocalDate, String, Convoy, StaffDTO): Run&lt;br/&gt;+ getAvailableDepartureTimes(LocalDate): List&amp;lt;String&amp;gt;&lt;br/&gt;+ setConvoysPoolAvailableFilteredByType(List&amp;lt;Convoy&amp;gt;): void&lt;br/&gt;+ calculateTravelTime(Line): Duration&lt;br/&gt;+ setAvailableConvoysFilteredByType(String, List&amp;lt;Convoy&amp;gt;): void&lt;br/&gt;+ setTravelTime(Duration): void&lt;br/&gt;+ getDateCellFactory(): Callback&amp;lt;DatePicker, DateCell&amp;gt;&lt;/p&gt;" style="verticalAlign=top;align=left;overflow=fill;fontSize=14;fontFamily=Helvetica;html=1;rounded=0;shadow=0;comic=0;labelBackgroundColor=none;strokeWidth=1;" parent="1" vertex="1">
          <mxGeometry x="1988" y="3831" width="451" height="545" as="geometry" />
        </mxCell>
        <mxCell id="node15" value="&lt;p style=&quot;margin:0px;margin-top:4px;text-align:center;&quot;&gt;&lt;b&gt;LogInController&lt;/b&gt;&lt;/p&gt;&lt;hr size=&quot;1&quot;/&gt;&lt;p style=&quot;margin:0 0 0 4px;line-height:1.6;&quot;&gt;- logger: Logger&lt;br/&gt;- loginButton: Button&lt;br/&gt;- passwordField: PasswordField&lt;br/&gt;- emailField: TextField&lt;br/&gt;- errorLabel: Label&lt;br/&gt;- logInService: LogInService&lt;/p&gt;&lt;hr size=&quot;1&quot;/&gt;&lt;p style=&quot;margin:0 0 0 4px;line-height:1.6;&quot;&gt;- handleLogin(ActionEvent): void&lt;br/&gt;+ initialize(): void&lt;/p&gt;" style="verticalAlign=top;align=left;overflow=fill;fontSize=14;fontFamily=Helvetica;html=1;rounded=0;shadow=0;comic=0;labelBackgroundColor=none;strokeWidth=1;" parent="1" vertex="1">
          <mxGeometry x="2849" y="2045" width="245" height="233" as="geometry" />
        </mxCell>
        <mxCell id="node9" value="&lt;p style=&quot;margin:0px;margin-top:4px;text-align:center;&quot;&gt;&lt;b&gt;LogInService&lt;/b&gt;&lt;/p&gt;&lt;hr size=&quot;1&quot;/&gt;&lt;p style=&quot;margin:0 0 0 4px;line-height:1.6;&quot;&gt;- logger: Logger&lt;br/&gt;- facade: RailSuiteFacade&lt;/p&gt;&lt;hr size=&quot;1&quot;/&gt;&lt;p style=&quot;margin:0 0 0 4px;line-height:1.6;&quot;&gt;+ authenticate(String, String): Staff&lt;/p&gt;" style="verticalAlign=top;align=left;overflow=fill;fontSize=14;fontFamily=Helvetica;html=1;rounded=0;shadow=0;comic=0;labelBackgroundColor=none;strokeWidth=1;" parent="1" vertex="1">
          <mxGeometry x="2517" y="2045" width="253" height="122" as="geometry" />
        </mxCell>
        <mxCell id="node31" value="&lt;p style=&quot;margin:0px;margin-top:4px;text-align:center;&quot;&gt;&lt;b&gt;ManageCarriagesController&lt;/b&gt;&lt;/p&gt;&lt;hr size=&quot;1&quot;&gt;&lt;p style=&quot;margin:0 0 0 4px;line-height:1.6;&quot;&gt;- addCarriageTypeComboBox: ComboBox&amp;lt;String&amp;gt;&lt;br&gt;- statusManageCarriageColumn: TableColumn&amp;lt;CarriageDepotDTO, String&amp;gt;&lt;br&gt;- logoutMenuItem: MenuItem&lt;br&gt;- closeManageCarriagesButton: Button&lt;br&gt;- selectedStationLabel: Label&lt;br&gt;- addCarriageTypeValueLabel: Label&lt;br&gt;- menuButton: MenuButton&lt;br&gt;- manageCarriagesService: ManageCarriagesService&lt;br&gt;- exitTimeManageCarriageColumn: TableColumn&amp;lt;CarriageDepotDTO, String&amp;gt;&lt;br&gt;- yearManageCarriageColumn: TableColumn&amp;lt;CarriageDepotDTO, Number&amp;gt;&lt;br&gt;- addCarriageModelValueLabel: Label&lt;br&gt;- openAddCarriageDialogButton: Button&lt;br&gt;- modelManageCarriageColumn: TableColumn&amp;lt;CarriageDepotDTO, String&amp;gt;&lt;br&gt;- addCarriageModelLabel: Label&lt;br&gt;- addCarriageTypeLabel: Label&lt;br&gt;- manageCarriageTableView: TableView&amp;lt;CarriageDepotDTO&amp;gt;&lt;br&gt;- supervisorNameLabel: Label&lt;br&gt;- backButton: Button&lt;br&gt;- addCarriageModelComboBox: ComboBox&amp;lt;String&amp;gt;&lt;br&gt;- removeManageCarriageColumn: TableColumn&amp;lt;CarriageDepotDTO, Void&amp;gt;&lt;br&gt;- capacityManageCarriageColumn: TableColumn&amp;lt;CarriageDepotDTO, Number&amp;gt;&lt;br&gt;- selectedConvoy: ConvoyTableDTO&lt;br&gt;- idManageCarriageColumn: TableColumn&amp;lt;CarriageDepotDTO, Number&amp;gt;&lt;br&gt;- selectedConvoyLabel: Label&lt;br&gt;- exitMenuItem: MenuItem&lt;br&gt;- manageCarriageList: ObservableList&amp;lt;CarriageDepotDTO&amp;gt;&lt;br&gt;- selectedStation: Station&lt;/p&gt;&lt;hr size=&quot;1&quot;&gt;&lt;p style=&quot;margin:0 0 0 4px;line-height:1.6;&quot;&gt;+ initialize(): void&lt;br&gt;- goBackToManageConvoy(): void&lt;br&gt;- getConvoyModelType(): String?&lt;br&gt;- onAddCarriageTypeSelected(): void&lt;br&gt;- reloadAddCarriageTypes(): void&lt;br&gt;- loadCarriages(): void&lt;br&gt;+ setSession(Staff, Station, ConvoyTableDTO): void&lt;br&gt;- showError(String): void&lt;br&gt;- getConvoyModel(): String?&lt;br&gt;- openAddCarriagesDialog(): void&lt;br&gt;- removeCarriageFromConvoy(CarriageDepotDTO): void&lt;/p&gt;" style="verticalAlign=top;align=left;overflow=fill;fontSize=14;fontFamily=Helvetica;html=1;rounded=0;shadow=0;comic=0;labelBackgroundColor=none;strokeWidth=1;" parent="1" vertex="1">
          <mxGeometry x="3781" y="1443" width="526" height="913" as="geometry" />
        </mxCell>
        <mxCell id="node13" value="&lt;p style=&quot;margin:0px;margin-top:4px;text-align:center;&quot;&gt;&lt;b&gt;ManageCarriagesService&lt;/b&gt;&lt;/p&gt;&lt;hr size=&quot;1&quot;/&gt;&lt;p style=&quot;margin:0 0 0 4px;line-height:1.6;&quot;&gt;- facade: RailSuiteFacade&lt;/p&gt;&lt;hr size=&quot;1&quot;/&gt;&lt;p style=&quot;margin:0 0 0 4px;line-height:1.6;&quot;&gt;+ addCarriageToConvoy(int, int): void&lt;br/&gt;+ removeCarriageFromConvoy(int, int): void&lt;br/&gt;+ getAvailableDepotCarriageModels(int, String): List&amp;lt;String&amp;gt;&lt;br/&gt;+ getAvailableDepotCarriages(int, String): List&amp;lt;Carriage&amp;gt;&lt;br/&gt;+ getCarriagesWithDepotStatusByConvoy(int): List&amp;lt;CarriageDepotDTO&amp;gt;&lt;br/&gt;+ getAvailableDepotCarriageTypes(int): List&amp;lt;String&amp;gt;&lt;/p&gt;" style="verticalAlign=top;align=left;overflow=fill;fontSize=14;fontFamily=Helvetica;html=1;rounded=0;shadow=0;comic=0;labelBackgroundColor=none;strokeWidth=1;" parent="1" vertex="1">
          <mxGeometry x="3151" y="1973" width="489" height="209" as="geometry" />
        </mxCell>
        <mxCell id="node20" value="&lt;p style=&quot;margin:0px;margin-top:4px;text-align:center;&quot;&gt;&lt;b&gt;ManageConvoyController&lt;/b&gt;&lt;/p&gt;&lt;hr size=&quot;1&quot;&gt;&lt;p style=&quot;margin:0 0 0 4px;line-height:1.6;&quot;&gt;- convoyTableView: TableView&amp;lt;ConvoyTableDTO&amp;gt;&lt;br&gt;- carriageCountColumn: TableColumn&amp;lt;ConvoyTableDTO, Number&amp;gt;&lt;br&gt;- logoutMenuItem: MenuItem&lt;br&gt;- depotAvailabilityObserver: Runnable&lt;br&gt;- statusColumn: TableColumn&amp;lt;ConvoyTableDTO, String&amp;gt;&lt;br&gt;- stationComboBox: ComboBox&amp;lt;Station&amp;gt;&lt;br&gt;- exitMenuItem: MenuItem&lt;br&gt;- convoyIdColumn: TableColumn&amp;lt;ConvoyTableDTO, Number&amp;gt;&lt;br&gt;- menuButton: MenuButton&lt;br&gt;- backButton: Button&lt;br&gt;- createConvoyButton: Button&lt;br&gt;- manageCarriagesButton: Button&lt;br&gt;- deleteConvoyButton: Button&lt;br&gt;- typeColumn: TableColumn&amp;lt;ConvoyTableDTO, String&amp;gt;&lt;br&gt;- convoyService: ConvoyService&lt;br&gt;- supervisorNameLabel: Label&lt;/p&gt;&lt;hr size=&quot;1&quot;&gt;&lt;p style=&quot;margin:0 0 0 4px;line-height:1.6;&quot;&gt;+ initialize(): void&lt;br&gt;- openCreateConvoyScene(): void&lt;br&gt;- openManageCarriagesScene(): void&lt;br&gt;~ header(Label, MenuItem, MenuItem): void&lt;br&gt;- onStationSelected(): void&lt;br&gt;- handleDeleteConvoy(): void&lt;br&gt;- showError(String): void&lt;/p&gt;" style="verticalAlign=top;align=left;overflow=fill;fontSize=14;fontFamily=Helvetica;html=1;rounded=0;shadow=0;comic=0;labelBackgroundColor=none;strokeWidth=1;" parent="1" vertex="1">
          <mxGeometry x="1165" y="1407" width="453" height="570" as="geometry" />
        </mxCell>
        <mxCell id="node30" value="&lt;p style=&quot;margin:0px;margin-top:4px;text-align:center;&quot;&gt;&lt;b&gt;ManageNotificationPopupController&lt;/b&gt;&lt;/p&gt;&lt;hr size=&quot;1&quot;/&gt;&lt;p style=&quot;margin:0 0 0 4px;line-height:1.6;&quot;&gt;- runTable: TableView&amp;lt;Run&amp;gt;&lt;br/&gt;- facade: RailSuiteFacade&lt;br/&gt;- staffSurnameColumn: TableColumn&amp;lt;Run, String&amp;gt;&lt;br/&gt;- convoyIdColumn: TableColumn&amp;lt;Run, Integer&amp;gt;&lt;br/&gt;- dateColumn: TableColumn&amp;lt;Run, String&amp;gt;&lt;br/&gt;- notification: Notification&lt;br/&gt;- noRunsLabel: Label&lt;/p&gt;&lt;hr size=&quot;1&quot;/&gt;&lt;p style=&quot;margin:0 0 0 4px;line-height:1.6;&quot;&gt;+ initialize(): void&lt;br/&gt;+ setNotification(Notification): void&lt;br/&gt;- handleApprove(): void&lt;br/&gt;- handleDeny(): void&lt;br/&gt;+ loadRunsForCarriage(int): void&lt;br/&gt;- close(): void&lt;/p&gt;" style="verticalAlign=top;align=left;overflow=fill;fontSize=14;fontFamily=Helvetica;html=1;rounded=0;shadow=0;comic=0;labelBackgroundColor=none;strokeWidth=1;" parent="1" vertex="1">
          <mxGeometry x="2517" y="1283" width="351" height="353" as="geometry" />
        </mxCell>
        <mxCell id="node14" value="&lt;p style=&quot;margin:0px;margin-top:4px;text-align:center;&quot;&gt;&lt;b&gt;ManageRunController&lt;/b&gt;&lt;/p&gt;&lt;hr size=&quot;1&quot;/&gt;&lt;p style=&quot;margin:0 0 0 4px;line-height:1.6;&quot;&gt;- menuButton: MenuButton&lt;br/&gt;- newRunButton: Button&lt;br/&gt;- statusColumn: TableColumn&amp;lt;Run, String&amp;gt;&lt;br/&gt;- logoutMenuItem: MenuItem&lt;br/&gt;- convoyComboHandler: EventHandler&amp;lt;ActionEvent&amp;gt;&lt;br/&gt;- logger: Logger&lt;br/&gt;- lineComboHandler: EventHandler&amp;lt;ActionEvent&amp;gt;&lt;br/&gt;- searchButton: Button&lt;br/&gt;- operatorColumn: TableColumn&amp;lt;Run, String&amp;gt;&lt;br/&gt;- filterLineComboBox: ComboBox&amp;lt;String&amp;gt;&lt;br/&gt;- filterDatePicker: DatePicker&lt;br/&gt;- filterConvoyComboBox: ComboBox&amp;lt;String&amp;gt;&lt;br/&gt;- summaryTable: TableView&amp;lt;Run&amp;gt;&lt;br/&gt;- supervisorNameLabel: Label&lt;br/&gt;- convoyIdColumn: TableColumn&amp;lt;Run, Integer&amp;gt;&lt;br/&gt;- detailsButton: Button&lt;br/&gt;- manageRunService: ManageRunService&lt;br/&gt;- lineNameColumn: TableColumn&amp;lt;Run, String&amp;gt;&lt;br/&gt;- exitMenuItem: MenuItem&lt;br/&gt;- startStationColumn: TableColumn&amp;lt;Run, String&amp;gt;&lt;br/&gt;- endTimeColumn: TableColumn&amp;lt;Run, Timestamp&amp;gt;&lt;br/&gt;- endStationColumn: TableColumn&amp;lt;Run, String&amp;gt;&lt;br/&gt;- backButton: Button&lt;br/&gt;- filterOperatorComboBox: ComboBox&amp;lt;String&amp;gt;&lt;br/&gt;- filterFirstStationComboBox: ComboBox&amp;lt;String&amp;gt;&lt;br/&gt;- startTimeColumn: TableColumn&amp;lt;Run, Timestamp&amp;gt;&lt;br/&gt;- operatorComboHandler: EventHandler&amp;lt;ActionEvent&amp;gt;&lt;/p&gt;&lt;hr size=&quot;1&quot;/&gt;&lt;p style=&quot;margin:0 0 0 4px;line-height:1.6;&quot;&gt;- initFilters(): void&lt;br/&gt;- offHandlers(): void&lt;br/&gt;- onHandlers(): void&lt;br/&gt;- refreshRunSummaryTable(): void&lt;br/&gt;- updateAllFilters(): void&lt;br/&gt;+ initialize(): void&lt;/p&gt;" style="verticalAlign=top;align=left;overflow=fill;fontSize=14;fontFamily=Helvetica;html=1;rounded=0;shadow=0;comic=0;labelBackgroundColor=none;strokeWidth=1;" parent="1" vertex="1">
          <mxGeometry x="3151" y="1073" width="376" height="833" as="geometry" />
        </mxCell>
        <mxCell id="node6" value="&lt;p style=&quot;margin:0px;margin-top:4px;text-align:center;&quot;&gt;&lt;b&gt;ManageRunService&lt;/b&gt;&lt;/p&gt;&lt;hr size=&quot;1&quot;/&gt;&lt;p style=&quot;margin:0 0 0 4px;line-height:1.6;&quot;&gt;- facade: RailSuiteFacade&lt;br/&gt;- logger: Logger&lt;/p&gt;&lt;hr size=&quot;1&quot;/&gt;&lt;p style=&quot;margin:0 0 0 4px;line-height:1.6;&quot;&gt;+ filterRunRaws(String, String, String, String, Timestamp): List&amp;lt;Run&amp;gt;&lt;br/&gt;+ searchRunsByDay(String, String, String, String, Timestamp, Timestamp): List&amp;lt;Run&amp;gt;&lt;br/&gt;+ completeRun(Run): void&lt;br/&gt;+ updateCarriageDepotStatuses(): void&lt;br/&gt;+ getAllRun(): List&amp;lt;Run&amp;gt;&lt;/p&gt;" style="verticalAlign=top;align=left;overflow=fill;fontSize=14;fontFamily=Helvetica;html=1;rounded=0;shadow=0;comic=0;labelBackgroundColor=none;strokeWidth=1;" parent="1" vertex="1">
          <mxGeometry x="2517" y="1697" width="494" height="209" as="geometry" />
        </mxCell>
        <mxCell id="node4" value="&lt;p style=&quot;margin:0px;margin-top:4px;text-align:center;&quot;&gt;&lt;i&gt;&amp;lt;&amp;lt;interface&amp;gt;&amp;gt;&lt;/i&gt;&lt;br/&gt;&lt;b&gt;NotificationObserver&lt;/b&gt;&lt;/p&gt;&lt;hr size=&quot;1&quot;/&gt;&lt;p style=&quot;margin:0 0 0 4px;line-height:1.6;&quot;&gt;+ onNotificationAdded(Notification): void&lt;/p&gt;" style="verticalAlign=top;align=left;overflow=fill;fontSize=14;fontFamily=Helvetica;html=1;rounded=0;shadow=0;comic=0;labelBackgroundColor=none;strokeWidth=1;" parent="1" vertex="1">
          <mxGeometry x="1014" y="4268" width="294" height="79" as="geometry" />
        </mxCell>
        <mxCell id="node34" value="&lt;p style=&quot;margin:0px;margin-top:4px;text-align:center;&quot;&gt;&lt;b&gt;NotificationRow&lt;/b&gt;&lt;/p&gt;&lt;hr size=&quot;1&quot;/&gt;&lt;p style=&quot;margin:0 0 0 4px;line-height:1.6;&quot;&gt;- dateTimeOfNotification: SimpleStringProperty&lt;br/&gt;- staffSurname: SimpleStringProperty&lt;br/&gt;- notification: Notification&lt;br/&gt;- typeOfCarriage: SimpleStringProperty&lt;br/&gt;- typeOfNotification: SimpleStringProperty&lt;br/&gt;- idCarriage: int&lt;/p&gt;&lt;hr size=&quot;1&quot;/&gt;&lt;p style=&quot;margin:0 0 0 4px;line-height:1.6;&quot;&gt;+ getTypeOfNotification(): String&lt;br/&gt;+ getNotification(): Notification&lt;br/&gt;+ getIdCarriage(): int&lt;br/&gt;+ getDateTimeOfNotification(): String&lt;br/&gt;+ getTypeOfCarriage(): String&lt;br/&gt;+ getStaffSurname(): String&lt;/p&gt;" style="verticalAlign=top;align=left;overflow=fill;fontSize=14;fontFamily=Helvetica;html=1;rounded=0;shadow=0;comic=0;labelBackgroundColor=none;strokeWidth=1;" parent="1" vertex="1">
          <mxGeometry x="1302" y="3294" width="327" height="329" as="geometry" />
        </mxCell>
        <mxCell id="node3" value="&lt;p style=&quot;margin:0px;margin-top:4px;text-align:center;&quot;&gt;&lt;b&gt;NotificationService&lt;/b&gt;&lt;/p&gt;&lt;hr size=&quot;1&quot;/&gt;&lt;p style=&quot;margin:0 0 0 4px;line-height:1.6;&quot;&gt;- observers: List&amp;lt;NotificationObserver&amp;gt;&lt;br/&gt;- facade: RailSuiteFacade&lt;br/&gt;- LOGGER: Logger&lt;/p&gt;&lt;hr size=&quot;1&quot;/&gt;&lt;p style=&quot;margin:0 0 0 4px;line-height:1.6;&quot;&gt;+ getAllNotifications(): List&amp;lt;Notification&amp;gt;&lt;br/&gt;+ addNotification(int, String, int, String, Timestamp, int, String, String, String): void&lt;br/&gt;- notifyObservers(Notification): void&lt;br/&gt;+ addObserver(NotificationObserver): void&lt;/p&gt;" style="verticalAlign=top;align=left;overflow=fill;fontSize=14;fontFamily=Helvetica;html=1;rounded=0;shadow=0;comic=0;labelBackgroundColor=none;strokeWidth=1;" parent="1" vertex="1">
          <mxGeometry x="1313" y="4331" width="420" height="209" as="geometry" />
        </mxCell>
        <mxCell id="node27" value="&lt;p style=&quot;margin:0px;margin-top:4px;text-align:center;&quot;&gt;&lt;b&gt;OperatorHomeController&lt;/b&gt;&lt;/p&gt;&lt;hr size=&quot;1&quot;/&gt;&lt;p style=&quot;margin:0 0 0 4px;line-height:1.6;&quot;&gt;- operatorNameLabel: Label&lt;br/&gt;- logoutMenuItem: MenuItem&lt;br/&gt;- convoyIdColumn: TableColumn&amp;lt;AssignedConvoyInfo, String&amp;gt;&lt;br/&gt;- noConvoyLabel: Label&lt;br/&gt;- arrivalTimeColumn: TableColumn&amp;lt;AssignedConvoyInfo, String&amp;gt;&lt;br/&gt;- detailsColumn: TableColumn&amp;lt;AssignedConvoyInfo, Void&amp;gt;&lt;br/&gt;- exitMenuItem: MenuItem&lt;br/&gt;- departureStationColumn: TableColumn&amp;lt;AssignedConvoyInfo, String&amp;gt;&lt;br/&gt;- assignedTrainsTable: TableView&amp;lt;AssignedConvoyInfo&amp;gt;&lt;br/&gt;- logger: Logger&lt;br/&gt;- departureTimeColumn: TableColumn&amp;lt;AssignedConvoyInfo, String&amp;gt;&lt;br/&gt;- arrivalStationColumn: TableColumn&amp;lt;AssignedConvoyInfo, String&amp;gt;&lt;/p&gt;&lt;hr size=&quot;1&quot;/&gt;&lt;p style=&quot;margin:0 0 0 4px;line-height:1.6;&quot;&gt;- setupTableColumns(): void&lt;br/&gt;- handleLogout(): void&lt;br/&gt;- openRunDetailsScene(AssignedConvoyInfo): void&lt;br/&gt;+ initialize(): void&lt;br/&gt;- openConvoyDetailsScene(AssignedConvoyInfo): void&lt;br/&gt;- populateAssignedTrainsTable(int): void&lt;br/&gt;- handleExit(): void&lt;/p&gt;" style="verticalAlign=top;align=left;overflow=fill;fontSize=14;fontFamily=Helvetica;html=1;rounded=0;shadow=0;comic=0;labelBackgroundColor=none;strokeWidth=1;" parent="1" vertex="1">
          <mxGeometry x="1974" y="4455" width="479" height="497" as="geometry" />
        </mxCell>
        <mxCell id="node7" value="&lt;p style=&quot;margin:0px;margin-top:4px;text-align:center;&quot;&gt;&lt;b&gt;OperatorHomeService&lt;/b&gt;&lt;/p&gt;&lt;hr size=&quot;1&quot;/&gt;&lt;p style=&quot;margin:0 0 0 4px;line-height:1.6;&quot;&gt;- facade: RailSuiteFacade&lt;/p&gt;&lt;hr size=&quot;1&quot;/&gt;&lt;p style=&quot;margin:0 0 0 4px;line-height:1.6;&quot;&gt;+ getAssignedConvoysForOperator(int): List&amp;lt;AssignedConvoyInfo&amp;gt;&lt;/p&gt;" style="verticalAlign=top;align=left;overflow=fill;fontSize=14;fontFamily=Helvetica;html=1;rounded=0;shadow=0;comic=0;labelBackgroundColor=none;strokeWidth=1;" parent="1" vertex="1">
          <mxGeometry x="1612" y="5099" width="462" height="96" as="geometry" />
        </mxCell>
        <mxCell id="node24" value="&lt;p style=&quot;margin:0px;margin-top:4px;text-align:center;&quot;&gt;&lt;b&gt;PopupManager&lt;/b&gt;&lt;/p&gt;&lt;hr size=&quot;1&quot;/&gt;&lt;p style=&quot;margin:0 0 0 4px;line-height:1.6;&quot;&gt;+ buildPopupContent(String, String, List&amp;lt;Button&amp;gt;): VBox&lt;br/&gt;+ openPopupWithController(String, String, String): T&lt;br/&gt;+ showChangeConvoyPopup(ObservableList&amp;lt;ConvoyTableDTO&amp;gt;, String, String, Callback&amp;lt;ConvoyTableDTO, Void&amp;gt;): void&lt;br/&gt;+ openPopup(String, String, Node, String, String): void&lt;/p&gt;" style="verticalAlign=top;align=left;overflow=fill;fontSize=14;fontFamily=Helvetica;html=1;rounded=0;shadow=0;comic=0;labelBackgroundColor=none;strokeWidth=1;" parent="1" vertex="1">
          <mxGeometry x="1477" y="1204" width="476" height="146" as="geometry" />
        </mxCell>
        <mxCell id="node0" value="&lt;p style=&quot;margin:0px;margin-top:4px;text-align:center;&quot;&gt;&lt;b&gt;RailSuiteFacade&lt;/b&gt;&lt;/p&gt;&lt;hr size=&quot;1&quot;/&gt;&lt;p style=&quot;margin:0 0 0 4px;line-height:1.6;&quot;&gt;- carriageDepotDao: CarriageDepotDao&lt;br/&gt;- lineDao: LineDao&lt;br/&gt;- notificationDao: NotificationDao&lt;br/&gt;- staffDao: StaffDao&lt;br/&gt;- convoyDao: ConvoyDao&lt;br/&gt;- stationDao: StationDao&lt;br/&gt;- staffPoolDao: StaffPoolDao&lt;br/&gt;- lineStationDao: LineStationDao&lt;br/&gt;- carriageDao: CarriageDao&lt;br/&gt;- convoyPoolDao: ConvoyPoolDao&lt;br/&gt;- runDao: RunDao&lt;br/&gt;- depotDao: DepotDao&lt;/p&gt;&lt;hr size=&quot;1&quot;/&gt;&lt;p style=&quot;margin:0 0 0 4px;line-height:1.6;&quot;&gt;+ moveNotificationToHistory(int, int, Timestamp, String, int, String, String, String): void&lt;br/&gt;+ getCarriagesInCleaningOrMaintenance(): List&amp;lt;CarriageDepot&amp;gt;&lt;br/&gt;+ updateRunDepartureTime(int, int, int, Timestamp, Timestamp): boolean&lt;br/&gt;+ findAllHeadStations(): List&amp;lt;Station&amp;gt;&lt;br/&gt;+ getAllNotificationsForConvoyAndStaff(int, int): List&amp;lt;Notification&amp;gt;&lt;br/&gt;+ deleteNotification(int, int, Timestamp): void&lt;br/&gt;+ findCarriagesWithDepotStatusByConvoy(int): List&amp;lt;CarriageDepotDTO&amp;gt;&lt;br/&gt;+ findAllOperators(): List&amp;lt;Staff&amp;gt;&lt;br/&gt;+ findActiveDepotByCarriage(int): CarriageDepot&lt;br/&gt;+ deleteDepot(int): void&lt;br/&gt;+ selectRun(int, int, int, Timestamp): RunDTO&lt;br/&gt;+ addNotification(int, int, Timestamp, String, int): void&lt;br/&gt;+ selectRunsByConvoy(int): List&amp;lt;Run&amp;gt;&lt;br/&gt;+ updateCarriageConvoy(int, Integer): boolean&lt;br/&gt;+ checkOperatorAvailability(): List&amp;lt;Staff&amp;gt;&lt;br/&gt;+ getDepot(int): Depot&lt;br/&gt;+ findAvailableCarriageModelsForConvoy(int, String): List&amp;lt;String&amp;gt;&lt;br/&gt;+ updateRunStaff(int, int, int, Timestamp, int): void&lt;br/&gt;+ selectConvoyDetailsById(int): ConvoyDetailsRaw&lt;br/&gt;+ getCarriagesByConvoyPosition(int): List&amp;lt;Carriage&amp;gt;&lt;br/&gt;+ getFutureRunsOfCurrentConvoy(int, Timestamp): List&amp;lt;ConvoyTableDTO&amp;gt;&lt;br/&gt;+ getDepotByStationId(int): Depot&lt;br/&gt;+ createConvoy(List&amp;lt;Carriage&amp;gt;): Convoy&lt;br/&gt;+ hasConvoyConflict(int): boolean&lt;br/&gt;+ findTimeTableForRun(int, int, String): List&amp;lt;StationArrAndDep&amp;gt;&lt;br/&gt;+ addNotification(int, String, int, String, Timestamp, int, String, String, String): void&lt;br/&gt;+ selectCarriage(int): Carriage&lt;br/&gt;+ hasOperatorConflicts(int, Timestamp): boolean&lt;br/&gt;+ removeConvoy(int): boolean&lt;br/&gt;+ selectRunsByStaff(int): List&amp;lt;Run&amp;gt;&lt;br/&gt;+ selectRun(int, int, Timestamp, int, int): Run&lt;br/&gt;+ getNotificationsByConvoyId(int): List&amp;lt;Notification&amp;gt;&lt;br/&gt;+ getConvoyTableDataByStation(int): List&amp;lt;ConvoyTableDTO&amp;gt;&lt;br/&gt;+ getConvoyPoolById(int): ConvoyPool&lt;br/&gt;+ createRun(int, int, int, Timestamp, Timestamp, int, int): boolean&lt;br/&gt;+ insertConvoyPool(ConvoyPool): void&lt;br/&gt;+ selectAllRun(): List&amp;lt;Run&amp;gt;&lt;br/&gt;+ findStaffByEmail(String): Staff&lt;br/&gt;+ getAllDepots(): List&amp;lt;Depot&amp;gt;&lt;br/&gt;+ searchRunsByDay(String, String, String, String, Timestamp, Timestamp): List&amp;lt;Run&amp;gt;&lt;br/&gt;+ findAllLines(): List&amp;lt;Line&amp;gt;&lt;br/&gt;+ findAvailableCarriageTypesForConvoy(int): List&amp;lt;String&amp;gt;&lt;br/&gt;+ selectRunsForConvoyAfterTime(int, Timestamp): List&amp;lt;Run&amp;gt;&lt;br/&gt;+ selectConvoy(int): Convoy&lt;br/&gt;+ getConvoysForNewRun(int, String, LocalDate, int): List&amp;lt;Convoy&amp;gt;&lt;br/&gt;+ insertCarriageDepot(CarriageDepot): void&lt;br/&gt;+ getAllNotifications(): List&amp;lt;Notification&amp;gt;&lt;br/&gt;+ replaceFutureRunsConvoy(int, int, RunDTO): boolean&lt;br/&gt;+ removeRun(int, int, int, Timestamp): boolean&lt;br/&gt;+ checkConvoyAvailability(int): List&amp;lt;ConvoyTableDTO&amp;gt;&lt;br/&gt;+ updateCarriageDepotStatusAndExitTime(int, int, String, Timestamp): void&lt;br/&gt;+ getAssignedConvoysInfoByStaff(int): List&amp;lt;AssignedConvoyInfo&amp;gt;&lt;br/&gt;+ findLineStationsByLineId(int): List&amp;lt;LineStation&amp;gt;&lt;br/&gt;+ selectAllConvoys(): List&amp;lt;Convoy&amp;gt;&lt;br/&gt;+ findStaffByType(TypeOfStaff): List&amp;lt;Staff&amp;gt;&lt;br/&gt;+ addCarriagesToConvoy(int, List&amp;lt;Carriage&amp;gt;): void&lt;br/&gt;+ getCarriagesByDepot(int): List&amp;lt;CarriageDepot&amp;gt;&lt;br/&gt;+ selectAssignedConvoysRowsByStaff(int): List&amp;lt;ConvoyAssignedRow&amp;gt;&lt;br/&gt;+ findAvailableOperatorsForRun(int, LocalDate, String): List&amp;lt;StaffDTO&amp;gt;&lt;br/&gt;+ hasRunConflict(int, int, int, Timestamp): boolean&lt;br/&gt;+ findAvailableCarriagesForConvoy(int, String): List&amp;lt;Carriage&amp;gt;&lt;br/&gt;+ deleteCarriageDepotByCarriageIfAvailable(int): void&lt;br/&gt;+ removeCarriageFromConvoy(int, Carriage): boolean&lt;br/&gt;+ insertDepot(int): void&lt;br/&gt;+ selectCarriagesByConvoyId(int): List&amp;lt;Carriage&amp;gt;&lt;br/&gt;+ selectApprovedNotificationsByConvoy(int): List&amp;lt;Notification&amp;gt;&lt;/p&gt;" style="verticalAlign=top;align=left;overflow=fill;fontSize=14;fontFamily=Helvetica;html=1;rounded=0;shadow=0;comic=0;labelBackgroundColor=none;strokeWidth=1;" parent="1" vertex="1">
          <mxGeometry x="1725" y="1407" width="508" height="1913" as="geometry" />
        </mxCell>
        <mxCell id="node25" value="&lt;p style=&quot;margin:0px;margin-top:4px;text-align:center;&quot;&gt;&lt;b&gt;RunDetailsController&lt;/b&gt;&lt;/p&gt;&lt;hr size=&quot;1&quot;/&gt;&lt;p style=&quot;margin:0 0 0 4px;line-height:1.6;&quot;&gt;- staffSurname: Label&lt;br/&gt;- operatorChange: Button&lt;br/&gt;- operatorDetailSection: VBox&lt;br/&gt;- menuButton: MenuButton&lt;br/&gt;- timeTableDetailSection: VBox&lt;br/&gt;- lineName: Label&lt;br/&gt;- idLine: int&lt;br/&gt;- timeDeparture: Timestamp&lt;br/&gt;- modelOfConvoy: Label&lt;br/&gt;- convoyChangeReason: String&lt;br/&gt;- arriveColumn: TableColumn&amp;lt;StationArrAndDep, String&amp;gt;&lt;br/&gt;- idStaff: int&lt;br/&gt;- timeTableView: TableView&amp;lt;StationArrAndDep&amp;gt;&lt;br/&gt;- runDetailsService: RunDetailsService&lt;br/&gt;- logoutMenuItem: MenuItem&lt;br/&gt;- eliminationButtonMention: Label&lt;br/&gt;- convoyEditPopupController: ConvoyEditPopupController&lt;br/&gt;- exitMenuItem: MenuItem&lt;br/&gt;- convoyEdit: Button&lt;br/&gt;- convoyEditReason: String&lt;br/&gt;- operatorChangeEditButtonReason: Label&lt;br/&gt;- startAtDateTime: Label&lt;br/&gt;- idConvoy: int&lt;br/&gt;- supervisorNameLabel: Label&lt;br/&gt;- convoyChange: Button&lt;br/&gt;- convoyDetailSection: VBox&lt;br/&gt;- convoyChangeEditButtonReason: Label&lt;br/&gt;- backButton: Button&lt;br/&gt;- departureColumn: TableColumn&amp;lt;StationArrAndDep, String&amp;gt;&lt;br/&gt;- runDate: Label&lt;br/&gt;- timeTableDetailSectionToggle: Button&lt;br/&gt;- firstStation: Label&lt;br/&gt;- typeOfConvoy: Label&lt;br/&gt;- staffName: Label&lt;br/&gt;- stationColumn: TableColumn&amp;lt;StationArrAndDep, String&amp;gt;&lt;br/&gt;- generalDetailSection: VBox&lt;br/&gt;- numberOfCarriage: Label&lt;br/&gt;- convoyDetailSectionToggle: Button&lt;br/&gt;- capacityOfConvoy: Label&lt;br/&gt;- staffEmail: Label&lt;br/&gt;- eliminationConfirm: Button&lt;br/&gt;- staffNameSurname: Label&lt;br/&gt;- operatorDetailSectionToggle: Button&lt;br/&gt;- listOfIdCarriages: Button&lt;br/&gt;- idFirstStation: int&lt;br/&gt;- logger: Logger&lt;/p&gt;&lt;hr size=&quot;1&quot;/&gt;&lt;p style=&quot;margin:0 0 0 4px;line-height:1.6;&quot;&gt;- operatorChange(): void&lt;br/&gt;- operatorDetailSectionToggle(): void&lt;br/&gt;- timeTableDetailSectionToggle(): void&lt;br/&gt;- listOfIdCarriages(): void&lt;br/&gt;- convoyDetailSectionToggle(): void&lt;br/&gt;+ setRunParams(int, int, int, Timestamp, int): void&lt;br/&gt;- convoyEdit(): void&lt;br/&gt;- eliminationConfirm(): void&lt;br/&gt;- taskInitTimeTable(int, int, String): void&lt;br/&gt;+ initialize(URL, ResourceBundle): void&lt;br/&gt;+ header(Label, MenuItem, MenuItem): void&lt;br/&gt;- convoyChange(): void&lt;br/&gt;- updateConvoyReasonLabel(): void&lt;br/&gt;- taskInitConvoy(int): void&lt;br/&gt;- loadRunDetails(): void&lt;br/&gt;- hideSections(): void&lt;/p&gt;" style="verticalAlign=top;align=left;overflow=fill;fontSize=14;fontFamily=Helvetica;html=1;rounded=0;shadow=0;comic=0;labelBackgroundColor=none;strokeWidth=1;" parent="1" vertex="1">
          <mxGeometry x="3223" y="2395" width="417" height="1529" as="geometry" />
        </mxCell>
        <mxCell id="node8" value="&lt;p style=&quot;margin:0px;margin-top:4px;text-align:center;&quot;&gt;&lt;b&gt;RunDetailsService&lt;/b&gt;&lt;/p&gt;&lt;hr size=&quot;1&quot;/&gt;&lt;p style=&quot;margin:0 0 0 4px;line-height:1.6;&quot;&gt;- timeTable: TimeTable&lt;br/&gt;- run: RunDTO&lt;br/&gt;- facade: RailSuiteFacade&lt;br/&gt;- convoy: Convoy&lt;/p&gt;&lt;hr size=&quot;1&quot;/&gt;&lt;p style=&quot;margin:0 0 0 4px;line-height:1.6;&quot;&gt;+ updateRunDepartureTime(int, int, int, Timestamp, Timestamp): boolean&lt;br/&gt;+ changeOperator(Staff): void&lt;br/&gt;+ checkAvailabilityOfConvoy(): List&amp;lt;ConvoyTableDTO&amp;gt;&lt;br/&gt;+ getFutureRunsOfCurrentConvoy(int, Timestamp): List&amp;lt;ConvoyTableDTO&amp;gt;&lt;br/&gt;+ hasConvoyConflict(): boolean&lt;br/&gt;+ checkAvailabilityOfOperator(): List&amp;lt;Staff&amp;gt;&lt;br/&gt;+ selectRun(): RunDTO&lt;br/&gt;+ selectConvoy(int): Convoy&lt;br/&gt;+ isDepartureTimeValid(int, int, Timestamp): boolean&lt;br/&gt;+ selectTimeTable(int, int, String): TimeTable&lt;br/&gt;+ selectRun(int, int, int, Timestamp): RunDTO&lt;br/&gt;+ hasOperatorConflicts(int, Timestamp): boolean&lt;br/&gt;+ deleteRun(): boolean&lt;br/&gt;+ hasRunConflict(): boolean&lt;br/&gt;+ replaceFutureRunsConvoy(int, int): void&lt;/p&gt;" style="verticalAlign=top;align=left;overflow=fill;fontSize=14;fontFamily=Helvetica;html=1;rounded=0;shadow=0;comic=0;labelBackgroundColor=none;strokeWidth=1;" parent="1" vertex="1">
          <mxGeometry x="2517" y="2395" width="508" height="497" as="geometry" />
        </mxCell>
        <mxCell id="node18" value="&lt;p style=&quot;margin:0px;margin-top:4px;text-align:center;&quot;&gt;&lt;b&gt;SceneManager&lt;/b&gt;&lt;/p&gt;&lt;hr size=&quot;1&quot;/&gt;&lt;p style=&quot;margin:0 0 0 4px;line-height:1.6;&quot;&gt;- LOGGER: Logger&lt;br/&gt;- instance: SceneManager&lt;br/&gt;- primaryStage: Stage&lt;/p&gt;&lt;hr size=&quot;1&quot;/&gt;&lt;p style=&quot;margin:0 0 0 4px;line-height:1.6;&quot;&gt;+ setStage(Stage): void&lt;br/&gt;+ openCreateConvoyScene(Staff, Station): void&lt;br/&gt;+ openManageCarriagesScene(Staff, Station, ConvoyTableDTO): void&lt;br/&gt;+ getInstance(): SceneManager&lt;br/&gt;+ switchScene(String): void&lt;br/&gt;+ openRunDetailsScene(int, int, int, Timestamp, int): void&lt;/p&gt;" style="verticalAlign=top;align=left;overflow=fill;fontSize=14;fontFamily=Helvetica;html=1;rounded=0;shadow=0;comic=0;labelBackgroundColor=none;strokeWidth=1;" parent="1" vertex="1">
          <mxGeometry x="557" y="1082" width="470" height="257" as="geometry" />
        </mxCell>
        <mxCell id="node26" value="&lt;p style=&quot;margin:0px;margin-top:4px;text-align:center;&quot;&gt;&lt;b&gt;StaffSelectionPopupController&lt;/b&gt;&lt;/p&gt;&lt;hr size=&quot;1&quot;/&gt;&lt;p style=&quot;margin:0 0 0 4px;line-height:1.6;&quot;&gt;- staffTable: TableView&amp;lt;Staff&amp;gt;&lt;br/&gt;- confirmCallback: Callback&amp;lt;Staff, Void&amp;gt;&lt;br/&gt;- filteredData: FilteredList&amp;lt;Staff&amp;gt;&lt;br/&gt;- nameColumn: TableColumn&amp;lt;Staff, String&amp;gt;&lt;br/&gt;- confirmButton: Button&lt;br/&gt;- cancelButton: Button&lt;br/&gt;- filterField: TextField&lt;br/&gt;- surnameColumn: TableColumn&amp;lt;Staff, String&amp;gt;&lt;/p&gt;&lt;hr size=&quot;1&quot;/&gt;&lt;p style=&quot;margin:0 0 0 4px;line-height:1.6;&quot;&gt;+ setStaffList(ObservableList&amp;lt;Staff&amp;gt;): void&lt;br/&gt;- onConfirm(): void&lt;br/&gt;- initialize(): void&lt;br/&gt;+ setConfirmCallback(Callback&amp;lt;Staff, Void&amp;gt;): void&lt;br/&gt;- onCancel(): void&lt;/p&gt;" style="verticalAlign=top;align=left;overflow=fill;fontSize=14;fontFamily=Helvetica;html=1;rounded=0;shadow=0;comic=0;labelBackgroundColor=none;strokeWidth=1;" parent="1" vertex="1">
          <mxGeometry x="1075" y="986" width="354" height="353" as="geometry" />
        </mxCell>
        <mxCell id="node33" value="&lt;p style=&quot;margin:0px;margin-top:4px;text-align:center;&quot;&gt;&lt;b&gt;StationRow&lt;/b&gt;&lt;/p&gt;&lt;hr size=&quot;1&quot;/&gt;&lt;p style=&quot;margin:0 0 0 4px;line-height:1.6;&quot;&gt;+ stationName: String&lt;br/&gt;+ departureTime: String&lt;br/&gt;+ arrivalTime: String&lt;/p&gt;" style="verticalAlign=top;align=left;overflow=fill;fontSize=14;fontFamily=Helvetica;html=1;rounded=0;shadow=0;comic=0;labelBackgroundColor=none;strokeWidth=1;" parent="1" vertex="1">
          <mxGeometry x="1132" y="2898" width="178" height="120" as="geometry" />
        </mxCell>
        <mxCell id="node21" value="&lt;p style=&quot;margin:0px;margin-top:4px;text-align:center;&quot;&gt;&lt;b&gt;SupervisorHomeController&lt;/b&gt;&lt;/p&gt;&lt;hr size=&quot;1&quot;/&gt;&lt;p style=&quot;margin:0 0 0 4px;line-height:1.6;&quot;&gt;- carriageTypeColumn: TableColumn&amp;lt;NotificationRow, String&amp;gt;&lt;br/&gt;- dateTimeColumn: TableColumn&amp;lt;NotificationRow, String&amp;gt;&lt;br/&gt;- staffSurnameColumn: TableColumn&amp;lt;NotificationRow, String&amp;gt;&lt;br/&gt;- data: ObservableList&amp;lt;NotificationRow&amp;gt;&lt;br/&gt;- notificationService: NotificationService&lt;br/&gt;- gestioneCorseButton: Button&lt;br/&gt;- exitMenuItem: MenuItem&lt;br/&gt;- notificationTable: TableView&amp;lt;NotificationRow&amp;gt;&lt;br/&gt;- manageColumn: TableColumn&amp;lt;NotificationRow, Void&amp;gt;&lt;br/&gt;- typeColumn: TableColumn&amp;lt;NotificationRow, String&amp;gt;&lt;br/&gt;- supervisorNameLabel: Label&lt;br/&gt;- logoutMenuItem: MenuItem&lt;br/&gt;- gestioneConvogliButton: Button&lt;/p&gt;&lt;hr size=&quot;1&quot;/&gt;&lt;p style=&quot;margin:0 0 0 4px;line-height:1.6;&quot;&gt;- handleExit(): void&lt;br/&gt;+ onNotificationAdded(Notification): void&lt;br/&gt;- openManageNotificationPopup(Notification): void&lt;br/&gt;- handleLogout(): void&lt;br/&gt;- adjustTableHeight(): void&lt;br/&gt;+ initialize(): void&lt;br/&gt;- refreshNotificationsTable(): void&lt;/p&gt;" style="verticalAlign=top;align=left;overflow=fill;fontSize=14;fontFamily=Helvetica;html=1;rounded=0;shadow=0;comic=0;labelBackgroundColor=none;strokeWidth=1;" parent="1" vertex="1">
          <mxGeometry x="1252" y="3691" width="427" height="521" as="geometry" />
        </mxCell>
        <mxCell id="node17" value="&lt;p style=&quot;margin:0px;margin-top:4px;text-align:center;&quot;&gt;&lt;b&gt;UserSession&lt;/b&gt;&lt;/p&gt;&lt;hr size=&quot;1&quot;/&gt;&lt;p style=&quot;margin:0 0 0 4px;line-height:1.6;&quot;&gt;- instance: UserSession&lt;br/&gt;- staff: Staff&lt;/p&gt;&lt;hr size=&quot;1&quot;/&gt;&lt;p style=&quot;margin:0 0 0 4px;line-height:1.6;&quot;&gt;+ getInstance(): UserSession&lt;br/&gt;+ clear(): void&lt;br/&gt;+ setStaff(Staff): void&lt;br/&gt;+ getStaff(): Staff&lt;/p&gt;" style="verticalAlign=top;align=left;overflow=fill;fontSize=14;fontFamily=Helvetica;html=1;rounded=0;shadow=0;comic=0;labelBackgroundColor=none;strokeWidth=1;" parent="1" vertex="1">
          <mxGeometry x="1477" y="986" width="214" height="185" as="geometry" />
        </mxCell>
        <mxCell id="edge1" value="" style="html=1;rounded=1;edgeStyle=orthogonalEdgeStyle;dashed=0;startArrow=circlePlus;startFill=0;endArrow=none;strokeColor=#820000;exitX=0.368;exitY=1.000;exitDx=0;exitDy=0;entryX=0.002;entryY=0.000;entryDx=0;entryDy=0;" parent="1" source="node36" target="node7" edge="1">
          <mxGeometry width="50" height="50" relative="1" as="geometry">
            <Array as="points" />
          </mxGeometry>
        </mxCell>
        <mxCell id="edge25" value="" style="html=1;rounded=1;edgeStyle=orthogonalEdgeStyle;dashed=0;startArrow=diamondThinstartSize=12;endArrow=openThin;endSize=12;strokeColor=#595959;exitX=0.458;exitY=0.000;exitDx=0;exitDy=0;entryX=0.404;entryY=1.000;entryDx=0;entryDy=0;" parent="1" source="node23" target="node1" edge="1">
          <mxGeometry width="50" height="50" relative="1" as="geometry">
            <Array as="points" />
          </mxGeometry>
        </mxCell>
        <mxCell id="label150" value="1" style="edgeLabel;resizable=0;html=1;align=left;verticalAlign=top;strokeColor=default;" parent="edge25" vertex="1" connectable="0">
          <mxGeometry x="2410" y="3325" as="geometry" />
        </mxCell>
        <mxCell id="label154" value="1" style="edgeLabel;resizable=0;html=1;align=left;verticalAlign=top;strokeColor=default;" parent="edge25" vertex="1" connectable="0">
          <mxGeometry x="2411" y="3392" as="geometry" />
        </mxCell>
        <mxCell id="label155" value="service" style="edgeLabel;resizable=0;html=1;align=left;verticalAlign=top;strokeColor=default;" parent="edge25" vertex="1" connectable="0">
          <mxGeometry x="2379" y="3358" as="geometry" />
        </mxCell>
        <mxCell id="edge28" value="" style="html=1;rounded=1;edgeStyle=orthogonalEdgeStyle;dashed=1;startArrow=none;endArrow=openThin;endSize=12;strokeColor=#595959;exitX=0.542;exitY=0.000;exitDx=0;exitDy=0;entryX=0.500;entryY=1.000;entryDx=0;entryDy=0;" parent="1" source="node23" target="node1" edge="1">
          <mxGeometry width="50" height="50" relative="1" as="geometry">
            <Array as="points" />
          </mxGeometry>
        </mxCell>
        <mxCell id="label170" value="«create»" style="edgeLabel;resizable=0;html=1;align=left;verticalAlign=top;strokeColor=default;" parent="edge28" vertex="1" connectable="0">
          <mxGeometry x="2479" y="3358" as="geometry" />
        </mxCell>
        <mxCell id="edge18" value="" style="html=1;rounded=1;edgeStyle=orthogonalEdgeStyle;dashed=0;startArrow=diamondThinstartSize=12;endArrow=openThin;endSize=12;strokeColor=#595959;exitX=0.000;exitY=0.456;exitDx=0;exitDy=0;entryX=1.000;entryY=0.968;entryDx=0;entryDy=0;" parent="1" source="node1" target="node0" edge="1">
          <mxGeometry width="50" height="50" relative="1" as="geometry">
            <Array as="points" />
          </mxGeometry>
        </mxCell>
        <mxCell id="label108" value="1" style="edgeLabel;resizable=0;html=1;align=left;verticalAlign=top;strokeColor=default;" parent="edge18" vertex="1" connectable="0">
          <mxGeometry x="2238" y="3243" as="geometry" />
        </mxCell>
        <mxCell id="label112" value="1" style="edgeLabel;resizable=0;html=1;align=left;verticalAlign=top;strokeColor=default;" parent="edge18" vertex="1" connectable="0">
          <mxGeometry x="2293" y="3238" as="geometry" />
        </mxCell>
        <mxCell id="label113" value="facade" style="edgeLabel;resizable=0;html=1;align=left;verticalAlign=top;strokeColor=default;" parent="edge18" vertex="1" connectable="0">
          <mxGeometry x="2254" y="3228" as="geometry" />
        </mxCell>
        <mxCell id="edge63" value="" style="html=1;rounded=1;edgeStyle=orthogonalEdgeStyle;dashed=1;startArrow=none;endArrow=openThin;endSize=12;strokeColor=#595959;exitX=0.000;exitY=0.588;exitDx=0;exitDy=0;entryX=1.000;entryY=0.976;entryDx=0;entryDy=0;" parent="1" source="node1" target="node0" edge="1">
          <mxGeometry width="50" height="50" relative="1" as="geometry">
            <Array as="points" />
          </mxGeometry>
        </mxCell>
        <mxCell id="label380" value="«create»" style="edgeLabel;resizable=0;html=1;align=left;verticalAlign=top;strokeColor=default;" parent="edge63" vertex="1" connectable="0">
          <mxGeometry x="2246" y="3288" as="geometry" />
        </mxCell>
        <mxCell id="edge49" value="" style="html=1;rounded=1;edgeStyle=orthogonalEdgeStyle;dashed=0;startArrow=diamondThinstartSize=12;endArrow=openThin;endSize=12;strokeColor=#595959;exitX=1.000;exitY=0.244;exitDx=0;exitDy=0;entryX=0.000;entryY=0.500;entryDx=0;entryDy=0;" parent="1" source="node16" target="node36" edge="1">
          <mxGeometry width="50" height="50" relative="1" as="geometry">
            <Array as="points" />
          </mxGeometry>
        </mxCell>
        <mxCell id="label294" value="1" style="edgeLabel;resizable=0;html=1;align=left;verticalAlign=top;strokeColor=default;" parent="edge49" vertex="1" connectable="0">
          <mxGeometry x="1521" y="4890" as="geometry" />
        </mxCell>
        <mxCell id="label298" value="1" style="edgeLabel;resizable=0;html=1;align=left;verticalAlign=top;strokeColor=default;" parent="edge49" vertex="1" connectable="0">
          <mxGeometry x="1460" y="4895" as="geometry" />
        </mxCell>
        <mxCell id="label299" value="convoyInfo" style="edgeLabel;resizable=0;html=1;align=left;verticalAlign=top;strokeColor=default;" parent="edge49" vertex="1" connectable="0">
          <mxGeometry x="1464" y="4838" as="geometry" />
        </mxCell>
        <mxCell id="edge14" value="" style="html=1;rounded=1;edgeStyle=orthogonalEdgeStyle;dashed=0;startArrow=diamondThinstartSize=12;endArrow=openThin;endSize=12;strokeColor=#595959;exitX=0.000;exitY=0.484;exitDx=0;exitDy=0;entryX=0.542;entryY=1.000;entryDx=0;entryDy=0;" parent="1" source="node16" target="node2" edge="1">
          <mxGeometry width="50" height="50" relative="1" as="geometry">
            <Array as="points">
              <mxPoint x="921" y="5108" />
            </Array>
          </mxGeometry>
        </mxCell>
        <mxCell id="label84" value="1" style="edgeLabel;resizable=0;html=1;align=left;verticalAlign=top;strokeColor=default;" parent="edge14" vertex="1" connectable="0">
          <mxGeometry x="925" y="3341" as="geometry" />
        </mxCell>
        <mxCell id="label88" value="1" style="edgeLabel;resizable=0;html=1;align=left;verticalAlign=top;strokeColor=default;" parent="edge14" vertex="1" connectable="0">
          <mxGeometry x="1009" y="5088" as="geometry" />
        </mxCell>
        <mxCell id="label89" value="convoyDetailsService" style="edgeLabel;resizable=0;html=1;align=left;verticalAlign=top;strokeColor=default;" parent="edge14" vertex="1" connectable="0">
          <mxGeometry x="896" y="5118" as="geometry" />
        </mxCell>
        <mxCell id="edge71" value="" style="html=1;rounded=1;edgeStyle=orthogonalEdgeStyle;dashed=1;startArrow=none;endArrow=openThin;endSize=12;strokeColor=#595959;exitX=0.005;exitY=0.528;exitDx=0;exitDy=0;entryX=0.458;entryY=1.000;entryDx=0;entryDy=0;" parent="1" source="node16" target="node2" edge="1">
          <mxGeometry width="50" height="50" relative="1" as="geometry">
            <Array as="points">
              <mxPoint x="881" y="5150" />
            </Array>
          </mxGeometry>
        </mxCell>
        <mxCell id="label428" value="«create»" style="edgeLabel;resizable=0;html=1;align=left;verticalAlign=top;strokeColor=default;" parent="edge71" vertex="1" connectable="0">
          <mxGeometry x="970" y="5150" as="geometry" />
        </mxCell>
        <mxCell id="edge38" value="" style="html=1;rounded=1;edgeStyle=orthogonalEdgeStyle;dashed=1;startArrow=none;endArrow=openThin;endSize=12;strokeColor=#595959;exitX=0.690;exitY=0.000;exitDx=0;exitDy=0;entryX=0.018;entryY=1.000;entryDx=0;entryDy=0;" parent="1" source="node16" target="node3" edge="1">
          <mxGeometry width="50" height="50" relative="1" as="geometry">
            <Array as="points" />
          </mxGeometry>
        </mxCell>
        <mxCell id="label230" value="«create»" style="edgeLabel;resizable=0;html=1;align=left;verticalAlign=top;strokeColor=default;" parent="edge38" vertex="1" connectable="0">
          <mxGeometry x="1263" y="4579" as="geometry" />
        </mxCell>
        <mxCell id="edge66" value="" style="html=1;rounded=1;edgeStyle=orthogonalEdgeStyle;dashed=0;startArrow=diamondThinstartSize=12;endArrow=openThin;endSize=12;strokeColor=#595959;exitX=0.983;exitY=0.000;exitDx=0;exitDy=0;entryX=0.317;entryY=1.000;entryDx=0;entryDy=0;" parent="1" source="node16" target="node3" edge="1">
          <mxGeometry width="50" height="50" relative="1" as="geometry">
            <Array as="points" />
          </mxGeometry>
        </mxCell>
        <mxCell id="label396" value="1" style="edgeLabel;resizable=0;html=1;align=left;verticalAlign=top;strokeColor=default;" parent="edge66" vertex="1" connectable="0">
          <mxGeometry x="1435" y="4545" as="geometry" />
        </mxCell>
        <mxCell id="label400" value="1" style="edgeLabel;resizable=0;html=1;align=left;verticalAlign=top;strokeColor=default;" parent="edge66" vertex="1" connectable="0">
          <mxGeometry x="1435" y="4621" as="geometry" />
        </mxCell>
        <mxCell id="label401" value="notificationService" style="edgeLabel;resizable=0;html=1;align=left;verticalAlign=top;strokeColor=default;" parent="edge66" vertex="1" connectable="0">
          <mxGeometry x="1446" y="4583" as="geometry" />
        </mxCell>
        <mxCell id="edge3" value="" style="html=1;rounded=1;edgeStyle=orthogonalEdgeStyle;dashed=0;startArrow=circlePlus;startFill=0;endArrow=none;strokeColor=#820000;exitX=0.438;exitY=1.000;exitDx=0;exitDy=0;entryX=0.469;entryY=0.000;entryDx=0;entryDy=0;" parent="1" source="node35" target="node2" edge="1">
          <mxGeometry width="50" height="50" relative="1" as="geometry">
            <Array as="points" />
          </mxGeometry>
        </mxCell>
        <mxCell id="edge43" value="" style="html=1;rounded=1;edgeStyle=orthogonalEdgeStyle;dashed=0;startArrow=diamondThinstartSize=12;endArrow=openThin;endSize=12;strokeColor=#595959;exitX=1.000;exitY=0.729;exitDx=0;exitDy=0;entryX=0.000;entryY=0.500;entryDx=0;entryDy=0;" parent="1" source="node35" target="node33" edge="1">
          <mxGeometry width="50" height="50" relative="1" as="geometry">
            <Array as="points" />
          </mxGeometry>
        </mxCell>
        <mxCell id="label258" value="1" style="edgeLabel;resizable=0;html=1;align=left;verticalAlign=top;strokeColor=default;" parent="edge43" vertex="1" connectable="0">
          <mxGeometry x="1026" y="2949" as="geometry" />
        </mxCell>
        <mxCell id="label262" value="*" style="edgeLabel;resizable=0;html=1;align=left;verticalAlign=top;strokeColor=default;" parent="edge43" vertex="1" connectable="0">
          <mxGeometry x="1118" y="2948" as="geometry" />
        </mxCell>
        <mxCell id="label263" value="stationRows" style="edgeLabel;resizable=0;html=1;align=left;verticalAlign=top;strokeColor=default;" parent="edge43" vertex="1" connectable="0">
          <mxGeometry x="1027" y="2930" as="geometry" />
        </mxCell>
        <mxCell id="edge4" value="" style="html=1;rounded=1;edgeStyle=orthogonalEdgeStyle;dashed=0;startArrow=circlePlus;startFill=0;endArrow=none;strokeColor=#820000;exitX=0.500;exitY=1.000;exitDx=0;exitDy=0;entryX=1.000;entryY=0.338;entryDx=0;entryDy=0;" parent="1" source="node32" target="node2" edge="1">
          <mxGeometry width="50" height="50" relative="1" as="geometry">
            <Array as="points">
              <mxPoint x="1504" y="3213" />
            </Array>
          </mxGeometry>
        </mxCell>
        <mxCell id="edge75" value="" style="html=1;rounded=1;edgeStyle=orthogonalEdgeStyle;dashed=0;startArrow=diamondThinstartSize=12;endArrow=openThin;endSize=12;strokeColor=#595959;exitX=0.000;exitY=0.401;exitDx=0;exitDy=0;entryX=1.000;entryY=0.500;entryDx=0;entryDy=0;" parent="1" source="node32" target="node33" edge="1">
          <mxGeometry width="50" height="50" relative="1" as="geometry">
            <Array as="points" />
          </mxGeometry>
        </mxCell>
        <mxCell id="label450" value="1" style="edgeLabel;resizable=0;html=1;align=left;verticalAlign=top;strokeColor=default;" parent="edge75" vertex="1" connectable="0">
          <mxGeometry x="1366" y="2934" as="geometry" />
        </mxCell>
        <mxCell id="label454" value="*" style="edgeLabel;resizable=0;html=1;align=left;verticalAlign=top;strokeColor=default;" parent="edge75" vertex="1" connectable="0">
          <mxGeometry x="1315" y="2934" as="geometry" />
        </mxCell>
        <mxCell id="label455" value="stationRows" style="edgeLabel;resizable=0;html=1;align=left;verticalAlign=top;strokeColor=default;" parent="edge75" vertex="1" connectable="0">
          <mxGeometry x="1310" y="2954" as="geometry" />
        </mxCell>
        <mxCell id="edge11" value="" style="html=1;rounded=1;edgeStyle=orthogonalEdgeStyle;dashed=1;startArrow=none;endArrow=openThin;endSize=12;strokeColor=#595959;exitX=0.500;exitY=0.000;exitDx=0;exitDy=0;entryX=0.500;entryY=1.000;entryDx=0;entryDy=0;" parent="1" source="node2" target="node35" edge="1">
          <mxGeometry width="50" height="50" relative="1" as="geometry">
            <Array as="points" />
          </mxGeometry>
        </mxCell>
        <mxCell id="label68" value="«create»" style="edgeLabel;resizable=0;html=1;align=left;verticalAlign=top;strokeColor=default;" parent="edge11" vertex="1" connectable="0">
          <mxGeometry x="909" y="3125" as="geometry" />
        </mxCell>
        <mxCell id="edge8" value="" style="html=1;rounded=1;edgeStyle=orthogonalEdgeStyle;dashed=1;startArrow=none;endArrow=openThin;endSize=12;strokeColor=#595959;exitX=1.000;exitY=0.419;exitDx=0;exitDy=0;entryX=0.000;entryY=0.952;entryDx=0;entryDy=0;" parent="1" source="node2" target="node0" edge="1">
          <mxGeometry width="50" height="50" relative="1" as="geometry">
            <Array as="points" />
          </mxGeometry>
        </mxCell>
        <mxCell id="label50" value="«create»" style="edgeLabel;resizable=0;html=1;align=left;verticalAlign=top;strokeColor=default;" parent="edge8" vertex="1" connectable="0">
          <mxGeometry x="1147" y="3210" as="geometry" />
        </mxCell>
        <mxCell id="edge59" value="" style="html=1;rounded=1;edgeStyle=orthogonalEdgeStyle;dashed=0;startArrow=diamondThinstartSize=12;endArrow=openThin;endSize=12;strokeColor=#595959;exitX=1.000;exitY=0.500;exitDx=0;exitDy=0;entryX=0.000;entryY=0.960;entryDx=0;entryDy=0;" parent="1" source="node2" target="node0" edge="1">
          <mxGeometry width="50" height="50" relative="1" as="geometry">
            <Array as="points" />
          </mxGeometry>
        </mxCell>
        <mxCell id="label354" value="1" style="edgeLabel;resizable=0;html=1;align=left;verticalAlign=top;strokeColor=default;" parent="edge59" vertex="1" connectable="0">
          <mxGeometry x="1709" y="3243" as="geometry" />
        </mxCell>
        <mxCell id="label358" value="1" style="edgeLabel;resizable=0;html=1;align=left;verticalAlign=top;strokeColor=default;" parent="edge59" vertex="1" connectable="0">
          <mxGeometry x="1148" y="3254" as="geometry" />
        </mxCell>
        <mxCell id="label359" value="facade" style="edgeLabel;resizable=0;html=1;align=left;verticalAlign=top;strokeColor=default;" parent="edge59" vertex="1" connectable="0">
          <mxGeometry x="1164" y="3246" as="geometry" />
        </mxCell>
        <mxCell id="edge24" value="" style="html=1;rounded=1;edgeStyle=orthogonalEdgeStyle;dashed=1;startArrow=none;endArrow=openThin;endSize=12;strokeColor=#595959;exitX=1.000;exitY=0.161;exitDx=0;exitDy=0;entryX=0.500;entryY=1.000;entryDx=0;entryDy=0;" parent="1" source="node2" target="node33" edge="1">
          <mxGeometry width="50" height="50" relative="1" as="geometry">
            <Array as="points">
              <mxPoint x="1221" y="3180" />
            </Array>
          </mxGeometry>
        </mxCell>
        <mxCell id="label146" value="«create»" style="edgeLabel;resizable=0;html=1;align=left;verticalAlign=top;strokeColor=default;" parent="edge24" vertex="1" connectable="0">
          <mxGeometry x="1145" y="3160" as="geometry" />
        </mxCell>
        <mxCell id="edge35" value="" style="html=1;rounded=1;edgeStyle=orthogonalEdgeStyle;dashed=1;startArrow=none;endArrow=openThin;endSize=12;strokeColor=#595959;exitX=0.410;exitY=0.000;exitDx=0;exitDy=0;entryX=0.462;entryY=1.000;entryDx=0;entryDy=0;" parent="1" source="node22" target="node11" edge="1">
          <mxGeometry width="50" height="50" relative="1" as="geometry">
            <Array as="points" />
          </mxGeometry>
        </mxCell>
        <mxCell id="label212" value="«create»" style="edgeLabel;resizable=0;html=1;align=left;verticalAlign=top;strokeColor=default;" parent="edge35" vertex="1" connectable="0">
          <mxGeometry x="2752" y="3131" as="geometry" />
        </mxCell>
        <mxCell id="edge62" value="" style="html=1;rounded=1;edgeStyle=orthogonalEdgeStyle;dashed=0;startArrow=diamondThinstartSize=12;endArrow=openThin;endSize=12;strokeColor=#595959;exitX=0.452;exitY=0.000;exitDx=0;exitDy=0;entryX=0.500;entryY=1.000;entryDx=0;entryDy=0;" parent="1" source="node22" target="node11" edge="1">
          <mxGeometry width="50" height="50" relative="1" as="geometry">
            <Array as="points" />
          </mxGeometry>
        </mxCell>
        <mxCell id="label372" value="1" style="edgeLabel;resizable=0;html=1;align=left;verticalAlign=top;strokeColor=default;" parent="edge62" vertex="1" connectable="0">
          <mxGeometry x="2830" y="3100" as="geometry" />
        </mxCell>
        <mxCell id="label376" value="1" style="edgeLabel;resizable=0;html=1;align=left;verticalAlign=top;strokeColor=default;" parent="edge62" vertex="1" connectable="0">
          <mxGeometry x="2830" y="3160" as="geometry" />
        </mxCell>
        <mxCell id="label377" value="service" style="edgeLabel;resizable=0;html=1;align=left;verticalAlign=top;strokeColor=default;" parent="edge62" vertex="1" connectable="0">
          <mxGeometry x="2839" y="3127" as="geometry" />
        </mxCell>
        <mxCell id="edge21" value="" style="html=1;rounded=1;edgeStyle=orthogonalEdgeStyle;dashed=0;startArrow=diamondThinstartSize=12;endArrow=openThin;endSize=12;strokeColor=#595959;exitX=0.000;exitY=0.367;exitDx=0;exitDy=0;entryX=1.000;entryY=0.845;entryDx=0;entryDy=0;" parent="1" source="node11" target="node0" edge="1">
          <mxGeometry width="50" height="50" relative="1" as="geometry">
            <Array as="points" />
          </mxGeometry>
        </mxCell>
        <mxCell id="label126" value="1" style="edgeLabel;resizable=0;html=1;align=left;verticalAlign=top;strokeColor=default;" parent="edge21" vertex="1" connectable="0">
          <mxGeometry x="2248" y="2989" as="geometry" />
        </mxCell>
        <mxCell id="label130" value="1" style="edgeLabel;resizable=0;html=1;align=left;verticalAlign=top;strokeColor=default;" parent="edge21" vertex="1" connectable="0">
          <mxGeometry x="2619" y="3003" as="geometry" />
        </mxCell>
        <mxCell id="label131" value="facade" style="edgeLabel;resizable=0;html=1;align=left;verticalAlign=top;strokeColor=default;" parent="edge21" vertex="1" connectable="0">
          <mxGeometry x="2566" y="2993" as="geometry" />
        </mxCell>
        <mxCell id="edge58" value="" style="html=1;rounded=1;edgeStyle=orthogonalEdgeStyle;dashed=1;startArrow=none;endArrow=openThin;endSize=12;strokeColor=#595959;exitX=0.000;exitY=0.500;exitDx=0;exitDy=0;entryX=1.000;entryY=0.853;entryDx=0;entryDy=0;" parent="1" source="node11" target="node0" edge="1">
          <mxGeometry width="50" height="50" relative="1" as="geometry">
            <Array as="points" />
          </mxGeometry>
        </mxCell>
        <mxCell id="label350" value="«create»" style="edgeLabel;resizable=0;html=1;align=left;verticalAlign=top;strokeColor=default;" parent="edge58" vertex="1" connectable="0">
          <mxGeometry x="2580" y="3053" as="geometry" />
        </mxCell>
        <mxCell id="edge20" value="" style="html=1;rounded=1;edgeStyle=orthogonalEdgeStyle;dashed=0;startArrow=diamondThinstartSize=12;endArrow=openThin;endSize=12;strokeColor=#595959;exitX=1.000;exitY=0.500;exitDx=0;exitDy=0;entryX=0.000;entryY=0.432;entryDx=0;entryDy=0;" parent="1" source="node10" target="node0" edge="1">
          <mxGeometry width="50" height="50" relative="1" as="geometry">
            <Array as="points" />
          </mxGeometry>
        </mxCell>
        <mxCell id="label120" value="1" style="edgeLabel;resizable=0;html=1;align=left;verticalAlign=top;strokeColor=default;" parent="edge20" vertex="1" connectable="0">
          <mxGeometry x="1706" y="2213" as="geometry" />
        </mxCell>
        <mxCell id="label124" value="1" style="edgeLabel;resizable=0;html=1;align=left;verticalAlign=top;strokeColor=default;" parent="edge20" vertex="1" connectable="0">
          <mxGeometry x="1632" y="2203" as="geometry" />
        </mxCell>
        <mxCell id="label125" value="facade" style="edgeLabel;resizable=0;html=1;align=left;verticalAlign=top;strokeColor=default;" parent="edge20" vertex="1" connectable="0">
          <mxGeometry x="1651" y="2213" as="geometry" />
        </mxCell>
        <mxCell id="edge7" value="" style="html=1;rounded=1;edgeStyle=orthogonalEdgeStyle;dashed=1;startArrow=none;endArrow=openThin;endSize=12;strokeColor=#595959;exitX=1.000;exitY=0.842;exitDx=0;exitDy=0;entryX=0.000;entryY=0.500;entryDx=0;entryDy=0;" parent="1" source="node29" target="node12" edge="1">
          <mxGeometry width="50" height="50" relative="1" as="geometry">
            <Array as="points" />
          </mxGeometry>
        </mxCell>
        <mxCell id="label44" value="«create»" style="edgeLabel;resizable=0;html=1;align=left;verticalAlign=top;strokeColor=default;" parent="edge7" vertex="1" connectable="0">
          <mxGeometry x="1072" y="2584" as="geometry" />
        </mxCell>
        <mxCell id="edge39" value="" style="html=1;rounded=1;edgeStyle=orthogonalEdgeStyle;dashed=0;startArrow=diamondThinstartSize=12;endArrow=openThin;endSize=12;strokeColor=#595959;exitX=1.000;exitY=0.821;exitDx=0;exitDy=0;entryX=0.000;entryY=0.407;entryDx=0;entryDy=0;" parent="1" source="node29" target="node12" edge="1">
          <mxGeometry width="50" height="50" relative="1" as="geometry">
            <Array as="points" />
          </mxGeometry>
        </mxCell>
        <mxCell id="label234" value="1" style="edgeLabel;resizable=0;html=1;align=left;verticalAlign=top;strokeColor=default;" parent="edge39" vertex="1" connectable="0">
          <mxGeometry x="1185" y="2562" as="geometry" />
        </mxCell>
        <mxCell id="label238" value="1" style="edgeLabel;resizable=0;html=1;align=left;verticalAlign=top;strokeColor=default;" parent="edge39" vertex="1" connectable="0">
          <mxGeometry x="1038" y="2565" as="geometry" />
        </mxCell>
        <mxCell id="label239" value="createConvoyService" style="edgeLabel;resizable=0;html=1;align=left;verticalAlign=top;strokeColor=default;" parent="edge39" vertex="1" connectable="0">
          <mxGeometry x="1056" y="2527" as="geometry" />
        </mxCell>
        <mxCell id="edge74" value="" style="html=1;rounded=1;edgeStyle=orthogonalEdgeStyle;dashed=1;startArrow=none;endArrow=openThin;endSize=12;strokeColor=#595959;exitX=0.450;exitY=0.000;exitDx=0;exitDy=0;entryX=0.528;entryY=1.000;entryDx=0;entryDy=0;" parent="1" source="node12" target="node10" edge="1">
          <mxGeometry width="50" height="50" relative="1" as="geometry">
            <Array as="points" />
          </mxGeometry>
        </mxCell>
        <mxCell id="label446" value="«create»" style="edgeLabel;resizable=0;html=1;align=left;verticalAlign=top;strokeColor=default;" parent="edge74" vertex="1" connectable="0">
          <mxGeometry x="1399" y="2456" as="geometry" />
        </mxCell>
        <mxCell id="edge70" value="" style="html=1;rounded=1;edgeStyle=orthogonalEdgeStyle;dashed=0;startArrow=diamondThinstartSize=12;endArrow=openThin;endSize=12;strokeColor=#595959;exitX=1.000;exitY=0.407;exitDx=0;exitDy=0;entryX=0.000;entryY=0.600;entryDx=0;entryDy=0;" parent="1" source="node12" target="node0" edge="1">
          <mxGeometry width="50" height="50" relative="1" as="geometry">
            <Array as="points">
              <mxPoint x="1671" y="2553" />
              <mxPoint x="1671" y="2555" />
            </Array>
          </mxGeometry>
        </mxCell>
        <mxCell id="label420" value="1" style="edgeLabel;resizable=0;html=1;align=left;verticalAlign=top;strokeColor=default;" parent="edge70" vertex="1" connectable="0">
          <mxGeometry x="1705" y="2534" as="geometry" />
        </mxCell>
        <mxCell id="label424" value="1" style="edgeLabel;resizable=0;html=1;align=left;verticalAlign=top;strokeColor=default;" parent="edge70" vertex="1" connectable="0">
          <mxGeometry x="1618" y="2522" as="geometry" />
        </mxCell>
        <mxCell id="label425" value="facade" style="edgeLabel;resizable=0;html=1;align=left;verticalAlign=top;strokeColor=default;" parent="edge70" vertex="1" connectable="0">
          <mxGeometry x="1621" y="2534" as="geometry" />
        </mxCell>
        <mxCell id="edge73" value="" style="html=1;rounded=1;edgeStyle=orthogonalEdgeStyle;dashed=1;startArrow=none;endArrow=openThin;endSize=12;strokeColor=#595959;exitX=1.000;exitY=0.593;exitDx=0;exitDy=0;entryX=0.000;entryY=0.615;entryDx=0;entryDy=0;" parent="1" source="node12" target="node0" edge="1">
          <mxGeometry width="50" height="50" relative="1" as="geometry">
            <Array as="points" />
          </mxGeometry>
        </mxCell>
        <mxCell id="label440" value="«create»" style="edgeLabel;resizable=0;html=1;align=left;verticalAlign=top;strokeColor=default;" parent="edge73" vertex="1" connectable="0">
          <mxGeometry x="1650" y="2564" as="geometry" />
        </mxCell>
        <mxCell id="edge10" value="" style="html=1;rounded=1;edgeStyle=orthogonalEdgeStyle;dashed=1;startArrow=none;endArrow=openThin;endSize=12;strokeColor=#595959;exitX=0.000;exitY=0.242;exitDx=0;exitDy=0;entryX=1.000;entryY=0.472;entryDx=0;entryDy=0;" parent="1" source="node19" target="node5" edge="1">
          <mxGeometry width="50" height="50" relative="1" as="geometry">
            <Array as="points" />
          </mxGeometry>
        </mxCell>
        <mxCell id="label62" value="«create»" style="edgeLabel;resizable=0;html=1;align=left;verticalAlign=top;strokeColor=default;" parent="edge10" vertex="1" connectable="0">
          <mxGeometry x="2533" y="4059" as="geometry" />
        </mxCell>
        <mxCell id="edge16" value="" style="html=1;rounded=1;edgeStyle=orthogonalEdgeStyle;dashed=0;startArrow=diamondThinstartSize=12;endArrow=openThin;endSize=12;strokeColor=#595959;exitX=0.000;exitY=0.256;exitDx=0;exitDy=0;entryX=1.000;entryY=0.500;entryDx=0;entryDy=0;" parent="1" source="node19" target="node5" edge="1">
          <mxGeometry width="50" height="50" relative="1" as="geometry">
            <Array as="points" />
          </mxGeometry>
        </mxCell>
        <mxCell id="label96" value="1" style="edgeLabel;resizable=0;html=1;align=left;verticalAlign=top;strokeColor=default;" parent="edge16" vertex="1" connectable="0">
          <mxGeometry x="2451" y="4104" as="geometry" />
        </mxCell>
        <mxCell id="label100" value="1" style="edgeLabel;resizable=0;html=1;align=left;verticalAlign=top;strokeColor=default;" parent="edge16" vertex="1" connectable="0">
          <mxGeometry x="2672" y="4104" as="geometry" />
        </mxCell>
        <mxCell id="label101" value="createRunService" style="edgeLabel;resizable=0;html=1;align=left;verticalAlign=top;strokeColor=default;" parent="edge16" vertex="1" connectable="0">
          <mxGeometry x="2560" y="4104" as="geometry" />
        </mxCell>
        <mxCell id="edge9" value="" style="html=1;rounded=1;edgeStyle=orthogonalEdgeStyle;dashed=1;startArrow=none;endArrow=openThin;endSize=12;strokeColor=#595959;exitX=0.500;exitY=0.000;exitDx=0;exitDy=0;entryX=0.962;entryY=1.000;entryDx=0;entryDy=0;" parent="1" source="node5" target="node0" edge="1">
          <mxGeometry width="50" height="50" relative="1" as="geometry">
            <Array as="points" />
          </mxGeometry>
        </mxCell>
        <mxCell id="label56" value="«create»" style="edgeLabel;resizable=0;html=1;align=left;verticalAlign=top;strokeColor=default;" parent="edge9" vertex="1" connectable="0">
          <mxGeometry x="2214" y="3760" as="geometry" />
        </mxCell>
        <mxCell id="edge61" value="" style="html=1;rounded=1;edgeStyle=orthogonalEdgeStyle;dashed=0;startArrow=diamondThinstartSize=12;endArrow=openThin;endSize=12;strokeColor=#595959;exitX=0.467;exitY=0.000;exitDx=0;exitDy=0;entryX=0.932;entryY=1.000;entryDx=0;entryDy=0;" parent="1" source="node5" target="node0" edge="1">
          <mxGeometry width="50" height="50" relative="1" as="geometry">
            <Array as="points" />
          </mxGeometry>
        </mxCell>
        <mxCell id="label366" value="1" style="edgeLabel;resizable=0;html=1;align=left;verticalAlign=top;strokeColor=default;" parent="edge61" vertex="1" connectable="0">
          <mxGeometry x="2188" y="3325" as="geometry" />
        </mxCell>
        <mxCell id="label370" value="1" style="edgeLabel;resizable=0;html=1;align=left;verticalAlign=top;strokeColor=default;" parent="edge61" vertex="1" connectable="0">
          <mxGeometry x="2183" y="3777" as="geometry" />
        </mxCell>
        <mxCell id="label371" value="facade" style="edgeLabel;resizable=0;html=1;align=left;verticalAlign=top;strokeColor=default;" parent="edge61" vertex="1" connectable="0">
          <mxGeometry x="2158" y="3759" as="geometry" />
        </mxCell>
        <mxCell id="edge44" value="" style="html=1;rounded=1;edgeStyle=orthogonalEdgeStyle;dashed=0;startArrow=diamondThinstartSize=12;endArrow=openThin;endSize=12;strokeColor=#595959;exitX=0.000;exitY=0.453;exitDx=0;exitDy=0;entryX=1.000;entryY=0.934;entryDx=0;entryDy=0;" parent="1" source="node15" target="node9" edge="1">
          <mxGeometry width="50" height="50" relative="1" as="geometry">
            <Array as="points" />
          </mxGeometry>
        </mxCell>
        <mxCell id="label264" value="1" style="edgeLabel;resizable=0;html=1;align=left;verticalAlign=top;strokeColor=default;" parent="edge44" vertex="1" connectable="0">
          <mxGeometry x="2776" y="2150" as="geometry" />
        </mxCell>
        <mxCell id="label268" value="1" style="edgeLabel;resizable=0;html=1;align=left;verticalAlign=top;strokeColor=default;" parent="edge44" vertex="1" connectable="0">
          <mxGeometry x="2831" y="2150" as="geometry" />
        </mxCell>
        <mxCell id="label269" value="logInService" style="edgeLabel;resizable=0;html=1;align=left;verticalAlign=top;strokeColor=default;" parent="edge44" vertex="1" connectable="0">
          <mxGeometry x="2773" y="2121" as="geometry" />
        </mxCell>
        <mxCell id="edge76" value="" style="html=1;rounded=1;edgeStyle=orthogonalEdgeStyle;dashed=1;startArrow=none;endArrow=openThin;endSize=12;strokeColor=#595959;exitX=0.000;exitY=0.157;exitDx=0;exitDy=0;entryX=1.000;entryY=0.323;entryDx=0;entryDy=0;" parent="1" source="node15" target="node9" edge="1">
          <mxGeometry width="50" height="50" relative="1" as="geometry">
            <Array as="points" />
          </mxGeometry>
        </mxCell>
        <mxCell id="label458" value="«create»" style="edgeLabel;resizable=0;html=1;align=left;verticalAlign=top;strokeColor=default;" parent="edge76" vertex="1" connectable="0">
          <mxGeometry x="2785" y="2056" as="geometry" />
        </mxCell>
        <mxCell id="edge23" value="" style="html=1;rounded=1;edgeStyle=orthogonalEdgeStyle;dashed=0;startArrow=diamondThinstartSize=12;endArrow=openThin;endSize=12;strokeColor=#595959;exitX=0.000;exitY=0.200;exitDx=0;exitDy=0;entryX=1.000;entryY=0.346;entryDx=0;entryDy=0;" parent="1" source="node9" target="node0" edge="1">
          <mxGeometry width="50" height="50" relative="1" as="geometry">
            <Array as="points" />
          </mxGeometry>
        </mxCell>
        <mxCell id="label138" value="1" style="edgeLabel;resizable=0;html=1;align=left;verticalAlign=top;strokeColor=default;" parent="edge23" vertex="1" connectable="0">
          <mxGeometry x="2238" y="2052" as="geometry" />
        </mxCell>
        <mxCell id="label142" value="1" style="edgeLabel;resizable=0;html=1;align=left;verticalAlign=top;strokeColor=default;" parent="edge23" vertex="1" connectable="0">
          <mxGeometry x="2464" y="2048" as="geometry" />
        </mxCell>
        <mxCell id="label143" value="facade" style="edgeLabel;resizable=0;html=1;align=left;verticalAlign=top;strokeColor=default;" parent="edge23" vertex="1" connectable="0">
          <mxGeometry x="2471" y="2037" as="geometry" />
        </mxCell>
        <mxCell id="edge64" value="" style="html=1;rounded=1;edgeStyle=orthogonalEdgeStyle;dashed=1;startArrow=none;endArrow=openThin;endSize=12;strokeColor=#595959;exitX=0.000;exitY=0.500;exitDx=0;exitDy=0;entryX=1.000;entryY=0.363;entryDx=0;entryDy=0;" parent="1" source="node9" target="node0" edge="1">
          <mxGeometry width="50" height="50" relative="1" as="geometry">
            <Array as="points" />
          </mxGeometry>
        </mxCell>
        <mxCell id="label386" value="«create»" style="edgeLabel;resizable=0;html=1;align=left;verticalAlign=top;strokeColor=default;" parent="edge64" vertex="1" connectable="0">
          <mxGeometry x="2462" y="2116" as="geometry" />
        </mxCell>
        <mxCell id="edge33" value="" style="html=1;rounded=1;edgeStyle=orthogonalEdgeStyle;dashed=1;startArrow=none;endArrow=openThin;endSize=12;strokeColor=#595959;exitX=0.003;exitY=0.701;exitDx=0;exitDy=0;entryX=1.000;entryY=0.524;entryDx=0;entryDy=0;exitPerimeter=0;" parent="1" source="node31" target="node13" edge="1">
          <mxGeometry width="50" height="50" relative="1" as="geometry">
            <Array as="points" />
          </mxGeometry>
        </mxCell>
        <mxCell id="label200" value="«create»" style="edgeLabel;resizable=0;html=1;align=left;verticalAlign=top;strokeColor=default;" parent="edge33" vertex="1" connectable="0">
          <mxGeometry x="3689" y="2093" as="geometry" />
        </mxCell>
        <mxCell id="edge45" value="" style="html=1;rounded=1;edgeStyle=orthogonalEdgeStyle;dashed=0;startArrow=diamondThinstartSize=12;endArrow=openThin;endSize=12;strokeColor=#595959;exitX=0.001;exitY=0.685;exitDx=0;exitDy=0;entryX=1.000;entryY=0.452;entryDx=0;entryDy=0;exitPerimeter=0;" parent="1" source="node31" target="node13" edge="1">
          <mxGeometry width="50" height="50" relative="1" as="geometry">
            <Array as="points" />
          </mxGeometry>
        </mxCell>
        <mxCell id="label270" value="1" style="edgeLabel;resizable=0;html=1;align=left;verticalAlign=top;strokeColor=default;" parent="edge45" vertex="1" connectable="0">
          <mxGeometry x="3649" y="2048" as="geometry" />
        </mxCell>
        <mxCell id="label274" value="1" style="edgeLabel;resizable=0;html=1;align=left;verticalAlign=top;strokeColor=default;" parent="edge45" vertex="1" connectable="0">
          <mxGeometry x="3761" y="2048" as="geometry" />
        </mxCell>
        <mxCell id="label275" value="manageCarriagesService" style="edgeLabel;resizable=0;html=1;align=left;verticalAlign=top;strokeColor=default;" parent="edge45" vertex="1" connectable="0">
          <mxGeometry x="3644" y="2035" as="geometry" />
        </mxCell>
        <mxCell id="edge29" value="" style="html=1;rounded=1;edgeStyle=orthogonalEdgeStyle;dashed=0;startArrow=diamondThinstartSize=12;endArrow=openThin;endSize=12;strokeColor=#595959;exitX=0.000;exitY=0.094;exitDx=0;exitDy=0;entryX=1.000;entryY=0.306;entryDx=0;entryDy=0;" parent="1" source="node13" target="node0" edge="1">
          <mxGeometry width="50" height="50" relative="1" as="geometry">
            <Array as="points">
              <mxPoint x="3022" y="1993" />
              <mxPoint x="3022" y="1993" />
            </Array>
          </mxGeometry>
        </mxCell>
        <mxCell id="label174" value="1" style="edgeLabel;resizable=0;html=1;align=left;verticalAlign=top;strokeColor=default;" parent="edge29" vertex="1" connectable="0">
          <mxGeometry x="2262" y="1988" as="geometry" />
        </mxCell>
        <mxCell id="label178" value="1" style="edgeLabel;resizable=0;html=1;align=left;verticalAlign=top;strokeColor=default;" parent="edge29" vertex="1" connectable="0">
          <mxGeometry x="3126" y="1988" as="geometry" />
        </mxCell>
        <mxCell id="label179" value="facade" style="edgeLabel;resizable=0;html=1;align=left;verticalAlign=top;strokeColor=default;" parent="edge29" vertex="1" connectable="0">
          <mxGeometry x="3105" y="2003" as="geometry" />
        </mxCell>
        <mxCell id="edge52" value="" style="html=1;rounded=1;edgeStyle=orthogonalEdgeStyle;dashed=1;startArrow=none;endArrow=openThin;endSize=12;strokeColor=#595959;exitX=0.001;exitY=0.048;exitDx=0;exitDy=0;entryX=1.000;entryY=0.301;entryDx=0;entryDy=0;exitPerimeter=0;" parent="1" source="node13" target="node0" edge="1">
          <mxGeometry width="50" height="50" relative="1" as="geometry">
            <Array as="points" />
          </mxGeometry>
        </mxCell>
        <mxCell id="label314" value="«create»" style="edgeLabel;resizable=0;html=1;align=left;verticalAlign=top;strokeColor=default;" parent="edge52" vertex="1" connectable="0">
          <mxGeometry x="3096" y="1962" as="geometry" />
        </mxCell>
        <mxCell id="edge13" value="" style="html=1;rounded=1;edgeStyle=orthogonalEdgeStyle;dashed=0;startArrow=diamondThinstartSize=12;endArrow=openThin;endSize=12;strokeColor=#595959;exitX=0.460;exitY=1.000;exitDx=0;exitDy=0;entryX=0.500;entryY=0.000;entryDx=0;entryDy=0;" parent="1" source="node20" target="node10" edge="1">
          <mxGeometry width="50" height="50" relative="1" as="geometry">
            <Array as="points" />
          </mxGeometry>
        </mxCell>
        <mxCell id="label78" value="1" style="edgeLabel;resizable=0;html=1;align=left;verticalAlign=top;strokeColor=default;" parent="edge13" vertex="1" connectable="0">
          <mxGeometry x="1358" y="2067" as="geometry" />
        </mxCell>
        <mxCell id="label82" value="1" style="edgeLabel;resizable=0;html=1;align=left;verticalAlign=top;strokeColor=default;" parent="edge13" vertex="1" connectable="0">
          <mxGeometry x="1358" y="1978" as="geometry" />
        </mxCell>
        <mxCell id="label83" value="convoyService" style="edgeLabel;resizable=0;html=1;align=left;verticalAlign=top;strokeColor=default;" parent="edge13" vertex="1" connectable="0">
          <mxGeometry x="1292" y="2048" as="geometry" />
        </mxCell>
        <mxCell id="edge30" value="" style="html=1;rounded=1;edgeStyle=orthogonalEdgeStyle;dashed=1;startArrow=none;endArrow=openThin;endSize=12;strokeColor=#595959;exitX=0.500;exitY=1.000;exitDx=0;exitDy=0;entryX=0.537;entryY=0.000;entryDx=0;entryDy=0;" parent="1" source="node20" target="node10" edge="1">
          <mxGeometry width="50" height="50" relative="1" as="geometry">
            <Array as="points" />
          </mxGeometry>
        </mxCell>
        <mxCell id="label182" value="«create»" style="edgeLabel;resizable=0;html=1;align=left;verticalAlign=top;strokeColor=default;" parent="edge30" vertex="1" connectable="0">
          <mxGeometry x="1399" y="1981" as="geometry" />
        </mxCell>
        <mxCell id="edge41" value="" style="html=1;rounded=1;edgeStyle=orthogonalEdgeStyle;dashed=1;startArrow=none;endArrow=openThin;endSize=12;strokeColor=#595959;exitX=0.704;exitY=1.000;exitDx=0;exitDy=0;entryX=0.500;entryY=0.000;entryDx=0;entryDy=0;" parent="1" source="node30" target="node6" edge="1">
          <mxGeometry width="50" height="50" relative="1" as="geometry">
            <Array as="points" />
          </mxGeometry>
        </mxCell>
        <mxCell id="label248" value="«create»" style="edgeLabel;resizable=0;html=1;align=left;verticalAlign=top;strokeColor=default;" parent="edge41" vertex="1" connectable="0">
          <mxGeometry x="2714" y="1657" as="geometry" />
        </mxCell>
        <mxCell id="edge26" value="" style="html=1;rounded=1;edgeStyle=orthogonalEdgeStyle;dashed=0;startArrow=diamondThinstartSize=12;endArrow=openThin;endSize=12;strokeColor=#595959;exitX=0.000;exitY=0.514;exitDx=0;exitDy=0;entryX=1.000;entryY=0.030;entryDx=0;entryDy=0;" parent="1" source="node30" target="node0" edge="1">
          <mxGeometry width="50" height="50" relative="1" as="geometry">
            <Array as="points" />
          </mxGeometry>
        </mxCell>
        <mxCell id="label156" value="1" style="edgeLabel;resizable=0;html=1;align=left;verticalAlign=top;strokeColor=default;" parent="edge26" vertex="1" connectable="0">
          <mxGeometry x="2243" y="1466" as="geometry" />
        </mxCell>
        <mxCell id="label160" value="1" style="edgeLabel;resizable=0;html=1;align=left;verticalAlign=top;strokeColor=default;" parent="edge26" vertex="1" connectable="0">
          <mxGeometry x="2502" y="1472" as="geometry" />
        </mxCell>
        <mxCell id="label161" value="facade" style="edgeLabel;resizable=0;html=1;align=left;verticalAlign=top;strokeColor=default;" parent="edge26" vertex="1" connectable="0">
          <mxGeometry x="2324" y="1465" as="geometry" />
        </mxCell>
        <mxCell id="edge37" value="" style="html=1;rounded=1;edgeStyle=orthogonalEdgeStyle;dashed=1;startArrow=none;endArrow=openThin;endSize=12;strokeColor=#595959;exitX=0.000;exitY=0.486;exitDx=0;exitDy=0;entryX=1.000;entryY=0.025;entryDx=0;entryDy=0;" parent="1" source="node30" target="node0" edge="1">
          <mxGeometry width="50" height="50" relative="1" as="geometry">
            <Array as="points" />
          </mxGeometry>
        </mxCell>
        <mxCell id="label224" value="«create»" style="edgeLabel;resizable=0;html=1;align=left;verticalAlign=top;strokeColor=default;" parent="edge37" vertex="1" connectable="0">
          <mxGeometry x="2335" y="1435" as="geometry" />
        </mxCell>
        <mxCell id="edge36" value="" style="html=1;rounded=1;edgeStyle=orthogonalEdgeStyle;dashed=0;startArrow=diamondThinstartSize=12;endArrow=openThin;endSize=12;strokeColor=#595959;exitX=0.000;exitY=0.887;exitDx=0;exitDy=0;entryX=1.000;entryY=0.548;entryDx=0;entryDy=0;" parent="1" source="node14" target="node6" edge="1">
          <mxGeometry width="50" height="50" relative="1" as="geometry">
            <Array as="points" />
          </mxGeometry>
        </mxCell>
        <mxCell id="label216" value="1" style="edgeLabel;resizable=0;html=1;align=left;verticalAlign=top;strokeColor=default;" parent="edge36" vertex="1" connectable="0">
          <mxGeometry x="3013" y="1822" as="geometry" />
        </mxCell>
        <mxCell id="label220" value="1" style="edgeLabel;resizable=0;html=1;align=left;verticalAlign=top;strokeColor=default;" parent="edge36" vertex="1" connectable="0">
          <mxGeometry x="3140" y="1828" as="geometry" />
        </mxCell>
        <mxCell id="label221" value="manageRunService" style="edgeLabel;resizable=0;html=1;align=left;verticalAlign=top;strokeColor=default;" parent="edge36" vertex="1" connectable="0">
          <mxGeometry x="3033" y="1812" as="geometry" />
        </mxCell>
        <mxCell id="edge57" value="" style="html=1;rounded=1;edgeStyle=orthogonalEdgeStyle;dashed=1;startArrow=none;endArrow=openThin;endSize=12;strokeColor=#595959;exitX=0.000;exitY=0.869;exitDx=0;exitDy=0;entryX=1.000;entryY=0.476;entryDx=0;entryDy=0;" parent="1" source="node14" target="node6" edge="1">
          <mxGeometry width="50" height="50" relative="1" as="geometry">
            <Array as="points" />
          </mxGeometry>
        </mxCell>
        <mxCell id="label344" value="«create»" style="edgeLabel;resizable=0;html=1;align=left;verticalAlign=top;strokeColor=default;" parent="edge57" vertex="1" connectable="0">
          <mxGeometry x="3056" y="1777" as="geometry" />
        </mxCell>
        <mxCell id="edge6" value="" style="html=1;rounded=1;edgeStyle=orthogonalEdgeStyle;dashed=1;startArrow=none;endArrow=openThin;endSize=12;strokeColor=#595959;exitX=0.000;exitY=0.524;exitDx=0;exitDy=0;entryX=1.000;entryY=0.209;entryDx=0;entryDy=0;" parent="1" source="node6" target="node0" edge="1">
          <mxGeometry width="50" height="50" relative="1" as="geometry">
            <Array as="points" />
          </mxGeometry>
        </mxCell>
        <mxCell id="label38" value="«create»" style="edgeLabel;resizable=0;html=1;align=left;verticalAlign=top;strokeColor=default;" parent="edge6" vertex="1" connectable="0">
          <mxGeometry x="2462" y="1807" as="geometry" />
        </mxCell>
        <mxCell id="edge32" value="" style="html=1;rounded=1;edgeStyle=orthogonalEdgeStyle;dashed=0;startArrow=diamondThinstartSize=12;endArrow=openThin;endSize=12;strokeColor=#595959;exitX=0.000;exitY=0.452;exitDx=0;exitDy=0;entryX=1.000;entryY=0.201;entryDx=0;entryDy=0;" parent="1" source="node6" target="node0" edge="1">
          <mxGeometry width="50" height="50" relative="1" as="geometry">
            <Array as="points" />
          </mxGeometry>
        </mxCell>
        <mxCell id="label192" value="1" style="edgeLabel;resizable=0;html=1;align=left;verticalAlign=top;strokeColor=default;" parent="edge32" vertex="1" connectable="0">
          <mxGeometry x="2258" y="1772" as="geometry" />
        </mxCell>
        <mxCell id="label196" value="1" style="edgeLabel;resizable=0;html=1;align=left;verticalAlign=top;strokeColor=default;" parent="edge32" vertex="1" connectable="0">
          <mxGeometry x="2501" y="1772" as="geometry" />
        </mxCell>
        <mxCell id="label197" value="facade" style="edgeLabel;resizable=0;html=1;align=left;verticalAlign=top;strokeColor=default;" parent="edge32" vertex="1" connectable="0">
          <mxGeometry x="2441" y="1772" as="geometry" />
        </mxCell>
        <mxCell id="edge5" value="" style="html=1;rounded=1;edgeStyle=orthogonalEdgeStyle;dashed=0;startArrow=circlePlus;startFill=0;endArrow=none;strokeColor=#820000;exitX=0.721;exitY=1.000;exitDx=0;exitDy=0;entryX=0.669;entryY=0.000;entryDx=0;entryDy=0;" parent="1" source="node34" target="node21" edge="1">
          <mxGeometry width="50" height="50" relative="1" as="geometry">
            <Array as="points" />
          </mxGeometry>
        </mxCell>
        <mxCell id="edge65" value="" style="html=1;rounded=1;edgeStyle=orthogonalEdgeStyle;dashed=0;startArrow=diamondThinstartSize=12;endArrow=openThin;endSize=12;strokeColor=#595959;exitX=0.007;exitY=0.244;exitDx=0;exitDy=0;entryX=0.780;entryY=1.001;entryDx=0;entryDy=0;" parent="1" source="node3" target="node4" edge="1">
          <mxGeometry width="50" height="50" relative="1" as="geometry">
            <Array as="points">
              <mxPoint x="1243" y="4382" />
            </Array>
          </mxGeometry>
        </mxCell>
        <mxCell id="label390" value="1" style="edgeLabel;resizable=0;html=1;align=left;verticalAlign=top;strokeColor=default;" parent="edge65" vertex="1" connectable="0">
          <mxGeometry x="1297" y="4362" as="geometry" />
        </mxCell>
        <mxCell id="label394" value="*" style="edgeLabel;resizable=0;html=1;align=left;verticalAlign=top;strokeColor=default;" parent="edge65" vertex="1" connectable="0">
          <mxGeometry x="1249" y="4337" as="geometry" />
        </mxCell>
        <mxCell id="label395" value="observers" style="edgeLabel;resizable=0;html=1;align=left;verticalAlign=top;strokeColor=default;" parent="edge65" vertex="1" connectable="0">
          <mxGeometry x="1231" y="4382" as="geometry" />
        </mxCell>
        <mxCell id="edge40" value="" style="html=1;rounded=1;edgeStyle=orthogonalEdgeStyle;dashed=0;startArrow=diamondThinstartSize=12;endArrow=openThin;endSize=12;strokeColor=#595959;exitX=1.000;exitY=0.500;exitDx=0;exitDy=0;entryX=0.109;entryY=1.000;entryDx=0;entryDy=0;" parent="1" source="node3" target="node0" edge="1">
          <mxGeometry width="50" height="50" relative="1" as="geometry">
            <Array as="points">
              <mxPoint x="1781" y="4435" />
            </Array>
          </mxGeometry>
        </mxCell>
        <mxCell id="label240" value="1" style="edgeLabel;resizable=0;html=1;align=left;verticalAlign=top;strokeColor=default;" parent="edge40" vertex="1" connectable="0">
          <mxGeometry x="1770" y="3332" as="geometry" />
        </mxCell>
        <mxCell id="label244" value="1" style="edgeLabel;resizable=0;html=1;align=left;verticalAlign=top;strokeColor=default;" parent="edge40" vertex="1" connectable="0">
          <mxGeometry x="1740" y="4415" as="geometry" />
        </mxCell>
        <mxCell id="label245" value="facade" style="edgeLabel;resizable=0;html=1;align=left;verticalAlign=top;strokeColor=default;" parent="edge40" vertex="1" connectable="0">
          <mxGeometry x="1748" y="4446" as="geometry" />
        </mxCell>
        <mxCell id="edge22" value="" style="html=1;rounded=1;edgeStyle=orthogonalEdgeStyle;dashed=1;startArrow=none;endArrow=openThin;endSize=12;strokeColor=#595959;exitX=0.016;exitY=1.000;exitDx=0;exitDy=0;entryX=0.801;entryY=0.000;entryDx=0;entryDy=0;" parent="1" source="node27" target="node7" edge="1">
          <mxGeometry width="50" height="50" relative="1" as="geometry">
            <Array as="points" />
          </mxGeometry>
        </mxCell>
        <mxCell id="label134" value="«create»" style="edgeLabel;resizable=0;html=1;align=left;verticalAlign=top;strokeColor=default;" parent="edge22" vertex="1" connectable="0">
          <mxGeometry x="1982" y="5015" as="geometry" />
        </mxCell>
        <mxCell id="edge17" value="" style="html=1;rounded=1;edgeStyle=orthogonalEdgeStyle;dashed=1;startArrow=none;endArrow=openThin;endSize=12;strokeColor=#595959;exitX=0.000;exitY=0.510;exitDx=0;exitDy=0;entryX=0.456;entryY=1.000;entryDx=0;entryDy=0;" parent="1" source="node27" target="node0" edge="1">
          <mxGeometry width="50" height="50" relative="1" as="geometry">
            <Array as="points">
              <mxPoint x="1957" y="4708" />
            </Array>
          </mxGeometry>
        </mxCell>
        <mxCell id="label104" value="«create»" style="edgeLabel;resizable=0;html=1;align=left;verticalAlign=top;strokeColor=default;" parent="edge17" vertex="1" connectable="0">
          <mxGeometry x="1907" y="4698" as="geometry" />
        </mxCell>
        <mxCell id="edge69" value="" style="html=1;rounded=1;edgeStyle=orthogonalEdgeStyle;dashed=1;startArrow=none;endArrow=openThin;endSize=12;strokeColor=#595959;exitX=0.063;exitY=0.000;exitDx=0;exitDy=0;entryX=0.500;entryY=1.000;entryDx=0;entryDy=0;" parent="1" source="node7" target="node36" edge="1">
          <mxGeometry width="50" height="50" relative="1" as="geometry">
            <Array as="points" />
          </mxGeometry>
        </mxCell>
        <mxCell id="label416" value="«create»" style="edgeLabel;resizable=0;html=1;align=left;verticalAlign=top;strokeColor=default;" parent="edge69" vertex="1" connectable="0">
          <mxGeometry x="1641" y="5063" as="geometry" />
        </mxCell>
        <mxCell id="edge53" value="" style="html=1;rounded=1;edgeStyle=orthogonalEdgeStyle;dashed=0;startArrow=diamondThinstartSize=12;endArrow=openThin;endSize=12;strokeColor=#595959;exitX=0.623;exitY=0.015;exitDx=0;exitDy=0;entryX=0.344;entryY=1.000;entryDx=0;entryDy=0;" parent="1" source="node7" target="node0" edge="1">
          <mxGeometry width="50" height="50" relative="1" as="geometry">
            <Array as="points" />
          </mxGeometry>
        </mxCell>
        <mxCell id="label318" value="1" style="edgeLabel;resizable=0;html=1;align=left;verticalAlign=top;strokeColor=default;" parent="edge53" vertex="1" connectable="0">
          <mxGeometry x="1889" y="3325" as="geometry" />
        </mxCell>
        <mxCell id="label322" value="1" style="edgeLabel;resizable=0;html=1;align=left;verticalAlign=top;strokeColor=default;" parent="edge53" vertex="1" connectable="0">
          <mxGeometry x="1884" y="5067" as="geometry" />
        </mxCell>
        <mxCell id="label323" value="facade" style="edgeLabel;resizable=0;html=1;align=left;verticalAlign=top;strokeColor=default;" parent="edge53" vertex="1" connectable="0">
          <mxGeometry x="1900" y="5067" as="geometry" />
        </mxCell>
        <mxCell id="edge15" value="" style="html=1;rounded=1;edgeStyle=orthogonalEdgeStyle;dashed=1;startArrow=none;endArrow=openThin;endSize=12;strokeColor=#595959;exitX=0.195;exitY=1.000;exitDx=0;exitDy=0;entryX=1.000;entryY=0.500;entryDx=0;entryDy=0;" parent="1" source="node0" target="node36" edge="1">
          <mxGeometry width="50" height="50" relative="1" as="geometry">
            <Array as="points">
              <mxPoint x="1824" y="4879" />
            </Array>
          </mxGeometry>
        </mxCell>
        <mxCell id="label92" value="«create»" style="edgeLabel;resizable=0;html=1;align=left;verticalAlign=top;strokeColor=default;" parent="edge15" vertex="1" connectable="0">
          <mxGeometry x="1832" y="3325" as="geometry" />
        </mxCell>
        <mxCell id="edge19" value="" style="html=1;rounded=1;edgeStyle=orthogonalEdgeStyle;dashed=1;startArrow=none;endArrow=openThin;endSize=12;strokeColor=#595959;exitX=0.000;exitY=0.646;exitDx=0;exitDy=0;entryX=1.000;entryY=0.465;entryDx=0;entryDy=0;" parent="1" source="node25" target="node22" edge="1">
          <mxGeometry width="50" height="50" relative="1" as="geometry">
            <Array as="points" />
          </mxGeometry>
        </mxCell>
        <mxCell id="label116" value="«create»" style="edgeLabel;resizable=0;html=1;align=left;verticalAlign=top;strokeColor=default;" parent="edge19" vertex="1" connectable="0">
          <mxGeometry x="3085" y="3347" as="geometry" />
        </mxCell>
        <mxCell id="edge54" value="" style="html=1;rounded=1;edgeStyle=orthogonalEdgeStyle;dashed=0;startArrow=diamondThinstartSize=12;endArrow=openThin;endSize=12;strokeColor=#595959;exitX=0.000;exitY=0.656;exitDx=0;exitDy=0;entryX=1.000;entryY=0.500;entryDx=0;entryDy=0;" parent="1" source="node25" target="node22" edge="1">
          <mxGeometry width="50" height="50" relative="1" as="geometry">
            <Array as="points" />
          </mxGeometry>
        </mxCell>
        <mxCell id="label324" value="1" style="edgeLabel;resizable=0;html=1;align=left;verticalAlign=top;strokeColor=default;" parent="edge54" vertex="1" connectable="0">
          <mxGeometry x="3037" y="3404" as="geometry" />
        </mxCell>
        <mxCell id="label328" value="1" style="edgeLabel;resizable=0;html=1;align=left;verticalAlign=top;strokeColor=default;" parent="edge54" vertex="1" connectable="0">
          <mxGeometry x="3208" y="3413" as="geometry" />
        </mxCell>
        <mxCell id="label329" value="convoyEditPopupController" style="edgeLabel;resizable=0;html=1;align=left;verticalAlign=top;strokeColor=default;" parent="edge54" vertex="1" connectable="0">
          <mxGeometry x="3053" y="3413" as="geometry" />
        </mxCell>
        <mxCell id="edge46" value="" style="html=1;rounded=1;edgeStyle=orthogonalEdgeStyle;dashed=0;startArrow=diamondThinstartSize=12;endArrow=openThin;endSize=12;strokeColor=#595959;exitX=0.000;exitY=0.163;exitDx=0;exitDy=0;entryX=1.000;entryY=0.500;entryDx=0;entryDy=0;" parent="1" source="node25" target="node8" edge="1">
          <mxGeometry width="50" height="50" relative="1" as="geometry">
            <Array as="points" />
          </mxGeometry>
        </mxCell>
        <mxCell id="label276" value="1" style="edgeLabel;resizable=0;html=1;align=left;verticalAlign=top;strokeColor=default;" parent="edge46" vertex="1" connectable="0">
          <mxGeometry x="3030" y="2639" as="geometry" />
        </mxCell>
        <mxCell id="label280" value="1" style="edgeLabel;resizable=0;html=1;align=left;verticalAlign=top;strokeColor=default;" parent="edge46" vertex="1" connectable="0">
          <mxGeometry x="3207" y="2639" as="geometry" />
        </mxCell>
        <mxCell id="label281" value="runDetailsService" style="edgeLabel;resizable=0;html=1;align=left;verticalAlign=top;strokeColor=default;" parent="edge46" vertex="1" connectable="0">
          <mxGeometry x="3072" y="2649" as="geometry" />
        </mxCell>
        <mxCell id="edge51" value="" style="html=1;rounded=1;edgeStyle=orthogonalEdgeStyle;dashed=1;startArrow=none;endArrow=openThin;endSize=12;strokeColor=#595959;exitX=0.000;exitY=0.153;exitDx=0;exitDy=0;entryX=1.000;entryY=0.470;entryDx=0;entryDy=0;" parent="1" source="node25" target="node8" edge="1">
          <mxGeometry width="50" height="50" relative="1" as="geometry">
            <Array as="points" />
          </mxGeometry>
        </mxCell>
        <mxCell id="label308" value="«create»" style="edgeLabel;resizable=0;html=1;align=left;verticalAlign=top;strokeColor=default;" parent="edge51" vertex="1" connectable="0">
          <mxGeometry x="3097" y="2597" as="geometry" />
        </mxCell>
        <mxCell id="edge31" value="" style="html=1;rounded=1;edgeStyle=orthogonalEdgeStyle;dashed=1;startArrow=none;endArrow=openThin;endSize=12;strokeColor=#595959;exitX=0.000;exitY=0.500;exitDx=0;exitDy=0;entryX=1.000;entryY=0.646;entryDx=0;entryDy=0;" parent="1" source="node8" target="node0" edge="1">
          <mxGeometry width="50" height="50" relative="1" as="geometry">
            <Array as="points" />
          </mxGeometry>
        </mxCell>
        <mxCell id="label188" value="«create»" style="edgeLabel;resizable=0;html=1;align=left;verticalAlign=top;strokeColor=default;" parent="edge31" vertex="1" connectable="0">
          <mxGeometry x="2462" y="2658" as="geometry" />
        </mxCell>
        <mxCell id="edge48" value="" style="html=1;rounded=1;edgeStyle=orthogonalEdgeStyle;dashed=0;startArrow=diamondThinstartSize=12;endArrow=openThin;endSize=12;strokeColor=#595959;exitX=0.000;exitY=0.470;exitDx=0;exitDy=0;entryX=1.000;entryY=0.639;entryDx=0;entryDy=0;" parent="1" source="node8" target="node0" edge="1">
          <mxGeometry width="50" height="50" relative="1" as="geometry">
            <Array as="points" />
          </mxGeometry>
        </mxCell>
        <mxCell id="label288" value="1" style="edgeLabel;resizable=0;html=1;align=left;verticalAlign=top;strokeColor=default;" parent="edge48" vertex="1" connectable="0">
          <mxGeometry x="2238" y="2608" as="geometry" />
        </mxCell>
        <mxCell id="label292" value="1" style="edgeLabel;resizable=0;html=1;align=left;verticalAlign=top;strokeColor=default;" parent="edge48" vertex="1" connectable="0">
          <mxGeometry x="2501" y="2608" as="geometry" />
        </mxCell>
        <mxCell id="label293" value="facade" style="edgeLabel;resizable=0;html=1;align=left;verticalAlign=top;strokeColor=default;" parent="edge48" vertex="1" connectable="0">
          <mxGeometry x="2453" y="2608" as="geometry" />
        </mxCell>
        <mxCell id="edge2" value="" style="html=1;rounded=1;edgeStyle=orthogonalEdgeStyle;dashed=0;startArrow=circlePlus;startFill=0;endArrow=none;strokeColor=#820000;exitX=0.416;exitY=1.000;exitDx=0;exitDy=0;entryX=1.000;entryY=0.053;entryDx=0;entryDy=0;" parent="1" source="node33" target="node2" edge="1">
          <mxGeometry width="50" height="50" relative="1" as="geometry">
            <Array as="points">
              <mxPoint x="1206" y="3160" />
            </Array>
          </mxGeometry>
        </mxCell>
        <mxCell id="edge0" value="" style="html=1;rounded=1;edgeStyle=orthogonalEdgeStyle;dashed=1;startArrow=none;endArrow=block;endSize=12;strokeColor=#008200;exitX=0.018;exitY=1.000;exitDx=0;exitDy=0;entryX=0.833;entryY=0.000;entryDx=0;entryDy=0;" parent="1" source="node21" target="node4" edge="1">
          <mxGeometry width="50" height="50" relative="1" as="geometry">
            <Array as="points" />
          </mxGeometry>
        </mxCell>
        <mxCell id="edge50" value="" style="html=1;rounded=1;edgeStyle=orthogonalEdgeStyle;dashed=0;startArrow=diamondThinstartSize=12;endArrow=openThin;endSize=12;strokeColor=#595959;exitX=0.377;exitY=0.000;exitDx=0;exitDy=0;entryX=0.340;entryY=1.000;entryDx=0;entryDy=0;" parent="1" source="node21" target="node34" edge="1">
          <mxGeometry width="50" height="50" relative="1" as="geometry">
            <Array as="points">
              <mxPoint x="1413" y="3656" />
              <mxPoint x="1413" y="3656" />
            </Array>
          </mxGeometry>
        </mxCell>
        <mxCell id="label300" value="1" style="edgeLabel;resizable=0;html=1;align=left;verticalAlign=top;strokeColor=default;" parent="edge50" vertex="1" connectable="0">
          <mxGeometry x="1402" y="3666" as="geometry" />
        </mxCell>
        <mxCell id="label304" value="*" style="edgeLabel;resizable=0;html=1;align=left;verticalAlign=top;strokeColor=default;" parent="edge50" vertex="1" connectable="0">
          <mxGeometry x="1404" y="3628" as="geometry" />
        </mxCell>
        <mxCell id="label305" value="data" style="edgeLabel;resizable=0;html=1;align=left;verticalAlign=top;strokeColor=default;" parent="edge50" vertex="1" connectable="0">
          <mxGeometry x="1413" y="3666" as="geometry" />
        </mxCell>
        <mxCell id="edge60" value="" style="html=1;rounded=1;edgeStyle=orthogonalEdgeStyle;dashed=1;startArrow=none;endArrow=openThin;endSize=12;strokeColor=#595959;exitX=0.500;exitY=0.000;exitDx=0;exitDy=0;entryX=0.500;entryY=1.000;entryDx=0;entryDy=0;" parent="1" source="node21" target="node34" edge="1">
          <mxGeometry width="50" height="50" relative="1" as="geometry">
            <Array as="points" />
          </mxGeometry>
        </mxCell>
        <mxCell id="label362" value="«create»" style="edgeLabel;resizable=0;html=1;align=left;verticalAlign=top;strokeColor=default;" parent="edge60" vertex="1" connectable="0">
          <mxGeometry x="1465" y="3666" as="geometry" />
        </mxCell>
        <mxCell id="edge12" value="" style="html=1;rounded=1;edgeStyle=orthogonalEdgeStyle;dashed=1;startArrow=none;endArrow=openThin;endSize=12;strokeColor=#595959;exitX=0.648;exitY=1.000;exitDx=0;exitDy=0;entryX=0.512;entryY=0.000;entryDx=0;entryDy=0;" parent="1" source="node21" target="node3" edge="1">
          <mxGeometry width="50" height="50" relative="1" as="geometry">
            <Array as="points" />
          </mxGeometry>
        </mxCell>
        <mxCell id="label74" value="«create»" style="edgeLabel;resizable=0;html=1;align=left;verticalAlign=top;strokeColor=default;" parent="edge12" vertex="1" connectable="0">
          <mxGeometry x="1563" y="4247" as="geometry" />
        </mxCell>
        <mxCell id="edge68" value="" style="html=1;rounded=1;edgeStyle=orthogonalEdgeStyle;dashed=0;startArrow=diamondThinstartSize=12;endArrow=openThin;endSize=12;strokeColor=#595959;exitX=0.624;exitY=1.000;exitDx=0;exitDy=0;entryX=0.488;entryY=0.000;entryDx=0;entryDy=0;" parent="1" source="node21" target="node3" edge="1">
          <mxGeometry width="50" height="50" relative="1" as="geometry">
            <Array as="points" />
          </mxGeometry>
        </mxCell>
        <mxCell id="label408" value="1" style="edgeLabel;resizable=0;html=1;align=left;verticalAlign=top;strokeColor=default;" parent="edge68" vertex="1" connectable="0">
          <mxGeometry x="1507" y="4306" as="geometry" />
        </mxCell>
        <mxCell id="label412" value="1" style="edgeLabel;resizable=0;html=1;align=left;verticalAlign=top;strokeColor=default;" parent="edge68" vertex="1" connectable="0">
          <mxGeometry x="1507" y="4217" as="geometry" />
        </mxCell>
        <mxCell id="label413" value="notificationService" style="edgeLabel;resizable=0;html=1;align=left;verticalAlign=top;strokeColor=default;" parent="edge68" vertex="1" connectable="0">
          <mxGeometry x="1395" y="4255" as="geometry" />
        </mxCell>
        <mxCell id="edge67" value="" style="html=1;rounded=1;edgeStyle=orthogonalEdgeStyle;dashed=1;startArrow=none;endArrow=openThin;endSize=12;strokeColor=#595959;exitX=1.000;exitY=0.500;exitDx=0;exitDy=0;entryX=0.080;entryY=1.000;entryDx=0;entryDy=0;" parent="1" source="node21" target="node0" edge="1">
          <mxGeometry width="50" height="50" relative="1" as="geometry">
            <Array as="points">
              <mxPoint x="1766" y="3952" />
            </Array>
          </mxGeometry>
        </mxCell>
        <mxCell id="label404" value="«create»" style="edgeLabel;resizable=0;html=1;align=left;verticalAlign=top;strokeColor=default;" parent="edge67" vertex="1" connectable="0">
          <mxGeometry x="1693" y="3917" as="geometry" />
        </mxCell>
      </root>
    </mxGraphModel>
  </diagram>
</mxfile>
